<svg xmlns="http://www.w3.org/2000/svg" width="172" height="48" viewBox="0 0 172 48">
  <defs>
    <linearGradient id="logo-beta-a" x1="66.142%" x2="33.528%" y1="33.858%" y2="66.471%">
      <stop offset="0%" stop-color="#9DA9B5"/>
      <stop offset="100%" stop-color="#FFF"/>
    </linearGradient>
    <linearGradient id="logo-beta-b" x1="26.151%" x2="56.979%" y1="79.447%" y2="34.552%">
      <stop offset="0%" stop-color="#9DA9B5" stop-opacity=".014"/>
      <stop offset="100%" stop-color="#303955" stop-opacity=".514"/>
    </linearGradient>
  </defs>
  <g fill="none" fill-rule="evenodd">
    <g fill="#4D556C" fill-rule="nonzero" transform="translate(54.26 3.757)">
      <path d="M5.43234783.148173913C2.31026087.148173913.0271304348 2.38330435.0271304348 5.5053913.0271304348 8.62747826 2.31026087 10.8626087 5.43234783 10.8626087 8.56904348 10.8626087 10.8521739 8.6253913 10.8521739 5.5053913 10.8521739 2.3853913 8.57113043.148173913 5.43234783.148173913zM5.43234783 8.90713043C3.52278261 8.90713043 2.29565217 7.43165217 2.29565217 5.5053913 2.29565217 3.56452174 3.52278261 2.10365217 5.43234783 2.10365217 7.34191304 2.10365217 8.58573913 3.56243478 8.58573913 5.5053913 8.58573913 7.43165217 7.344 8.90713043 5.43234783 8.90713043zM16.6476522 2.9906087C15.7314783 2.9906087 14.9071304 3.3933913 14.3332174 4.12382609L14.3332174 3.17634783 12.3610435 3.17634783 12.3610435 13.533913 14.3332174 13.533913 14.3332174 9.71478261C14.9384348 10.4911304 15.7627826 10.8646957 16.6476522 10.8646957 18.573913 10.8646957 19.970087 9.42052174 19.970087 6.92034783 19.970087 4.41808696 18.5718261 2.9906087 16.6476522 2.9906087zM16.0257391 9.10747826C15.3892174 9.10747826 14.6587826 8.71930435 14.3332174 8.25391304L14.3332174 5.59930435C14.6587826 5.11721739 15.3892174 4.74573913 16.0257391 4.74573913 17.1589565 4.74573913 17.9206957 5.6306087 17.9206957 6.92034783 17.9206957 8.2226087 17.1589565 9.10747826 16.0257391 9.10747826zM28.605913 7.12069565C28.605913 4.66643478 27.0845217 2.9906087 24.8473043 2.9906087 22.5641739 2.9906087 20.9655652 4.74573913 20.9655652 6.92034783 20.9655652 9.3266087 22.6893913 10.8646957 24.9725217 10.8646957 26.1370435 10.8646957 27.3015652 10.5224348 28.0633043 9.82330435L27.1930435 8.55026087C26.7109565 9.01565217 25.8886957 9.29530435 25.1895652 9.29530435 23.9165217 9.29530435 23.1547826 8.50434783 23.0316522 7.55686957L28.608 7.55686957 28.608 7.12069565 28.605913 7.12069565zM22.9982609 6.21913043C23.0921739 5.47408696 23.6201739 4.55791304 24.8473043 4.55791304 26.1516522 4.55791304 26.6483478 5.5053913 26.6963478 6.21913043L22.9982609 6.21913043zM35.0984348 6.14191304C35.0984348 5.10052174 34.5537391 4.74365217 33.7168696 4.74365217 32.9405217 4.74365217 32.3353043 5.17773913 32.0076522 5.62852174L32.0076522 10.6747826 30.0354783 10.6747826 30.0354783 3.17634783 32.0076522 3.17634783 32.0076522 4.15513043C32.4897391 3.58121739 33.405913 2.9906087 34.6330435 2.9906087 36.2796522 2.9906087 37.0706087 3.9213913 37.0706087 5.38226087L37.0706087 10.6789565 35.0984348 10.6789565 35.0984348 6.14191304z"/>
      <circle cx="52.85" cy="15.606" r="1.181"/>
      <g transform="translate(.417 15.026)">
        <path d="M4.95443478.00417391304L.108521739.00417391304.108521739 10.3617391 2.31443478 10.3617391 2.31443478 6.65113043 4.95443478 6.65113043C7.19165217 6.65113043 8.4333913 5.14434783 8.4333913 3.34330435 8.4333913 1.52765217 7.20626087.00417391304 4.95443478.00417391304zM4.65808696 4.75826087L2.31234783 4.75826087 2.31234783 1.89913043 4.65808696 1.89913043C5.52834783 1.89913043 6.17947826 2.47304348 6.17947826 3.32869565 6.17947826 4.19895652 5.52834783 4.75826087 4.65808696 4.75826087zM12.6427826 2.67547826C11.4615652 2.67547826 10.2824348 3.04904348 9.36626087 3.85669565L10.1113043 5.17565217C10.7478261 4.58504348 11.4928696 4.29078261 12.3005217 4.29078261 13.293913 4.29078261 13.9471304 4.78747826 13.9471304 5.54921739L13.9471304 6.5906087C13.4504348 5.9853913 12.5655652 5.67443478 11.5721739 5.67443478 10.3763478 5.67443478 8.96347826 6.31095652 8.96347826 8.06608696 8.96347826 9.744 10.3763478 10.5516522 11.5721739 10.5516522 12.5509565 10.5516522 13.4358261 10.1947826 13.9471304 9.58956522L13.9471304 10.365913 15.9193043 10.365913 15.9193043 5.52C15.9193043 3.36 14.349913 2.67547826 12.6427826 2.67547826zM13.9471304 8.56278261C13.6215652 8.99686957 12.9996522 9.21391304 12.3631304 9.21391304 11.5867826 9.21391304 10.9502609 8.81113043 10.9502609 8.112 10.9502609 7.39826087 11.5867826 6.97878261 12.3631304 6.97878261 12.9996522 6.97878261 13.6215652 7.19582609 13.9471304 7.632L13.9471304 8.56278261zM21.3704348 2.67547826C22.9085217 2.67547826 23.8393043 3.34330435 24.336 4.04243478L23.0462609 5.23826087C22.6893913 4.72486957 22.1446957 4.4306087 21.4622609 4.4306087 20.2664348 4.4306087 19.4274783 5.30086957 19.4274783 6.60521739 19.4274783 7.90956522 20.2664348 8.79443478 21.4622609 8.79443478 22.1446957 8.79443478 22.6893913 8.48347826 23.0462609 7.98678261L24.336 9.1826087C23.8393043 9.88173913 22.9064348 10.5495652 21.3704348 10.5495652 19.056 10.5495652 17.3947826 8.91965217 17.3947826 6.60521739 17.3947826 4.30747826 19.056 2.67547826 21.3704348 2.67547826z"/>
        <polygon points="28.499 7.475 27.598 8.438 27.598 10.364 25.626 10.364 25.626 .004 27.598 .004 27.598 6.202 30.44 2.863 32.863 2.863 29.898 6.263 32.957 10.364 30.486 10.364"/>
        <path d="M37.1353043 2.67547826C35.954087 2.67547826 34.7749565 3.04904348 33.8587826 3.85669565L34.6038261 5.17565217C35.2403478 4.58504348 35.9853913 4.29078261 36.7930435 4.29078261 37.7864348 4.29078261 38.4396522 4.78747826 38.4396522 5.54921739L38.4396522 6.5906087C37.9429565 5.9853913 37.058087 5.67443478 36.0626087 5.67443478 34.8667826 5.67443478 33.453913 6.31095652 33.453913 8.06608696 33.453913 9.744 34.8667826 10.5516522 36.0626087 10.5516522 37.0413913 10.5516522 37.9262609 10.1947826 38.4396522 9.58956522L38.4396522 10.365913 40.4118261 10.365913 40.4118261 5.52C40.4118261 3.36 38.8424348 2.67547826 37.1353043 2.67547826zM38.4396522 8.56278261C38.114087 8.99686957 37.4921739 9.21391304 36.8556522 9.21391304 36.0793043 9.21391304 35.4427826 8.81113043 35.4427826 8.112 35.4427826 7.39826087 36.0793043 6.97878261 36.8556522 6.97878261 37.4921739 6.97878261 38.114087 7.19582609 38.4396522 7.632L38.4396522 8.56278261zM47.5095652 2.86330435L47.5095652 3.8253913C46.9043478 3.06365217 46.0966957 2.67547826 45.1951304 2.67547826 43.3001739 2.67547826 41.8873043 4.04243478 41.8873043 6.49669565 41.8873043 8.99686957 43.3168696 10.317913 45.1951304 10.317913 46.1113043 10.317913 46.9189565 9.88382609 47.5095652 9.13669565L47.5095652 9.89843478C47.5095652 11.373913 46.3909565 11.7933913 45.4434783 11.7933913 44.496 11.7933913 43.7050435 11.5283478 43.0977391 10.8626087L42.2128696 12.2921739C43.1436522 13.1144348 44.1537391 13.4107826 45.4434783 13.4107826 47.2925217 13.4107826 49.4963478 12.7116522 49.4963478 9.8546087L49.4963478 2.8653913 47.5095652 2.8653913 47.5095652 2.86330435zM47.5095652 7.70921739C47.184 8.19130435 46.4681739 8.56278261 45.8170435 8.56278261 44.6984348 8.56278261 43.922087 7.78643478 43.922087 6.49669565 43.922087 5.20695652 44.6984348 4.4306087 45.8170435 4.4306087 46.4681739 4.4306087 47.184 4.78747826 47.5095652 5.28417391L47.5095652 7.70921739z"/>
        <rect width="1.972" height="7.501" x="51.454" y="2.863"/>
        <path d="M60.4466087 5.82886957C60.4466087 4.78747826 59.901913 4.4306087 59.0650435 4.4306087 58.2886957 4.4306087 57.6834783 4.86469565 57.3558261 5.31547826L57.3558261 10.3617391 55.3836522 10.3617391 55.3836522 2.86121739 57.3558261 2.86121739 57.3558261 3.84C57.837913 3.26608696 58.754087 2.67547826 59.9812174 2.67547826 61.6278261 2.67547826 62.4187826 3.60626087 62.4187826 5.06713043L62.4187826 10.3638261 60.4466087 10.3638261 60.4466087 5.82886957 60.4466087 5.82886957zM69.5165217 2.86330435L69.5165217 3.8253913C68.9113043 3.06365217 68.1036522 2.67547826 67.202087 2.67547826 65.3071304 2.67547826 63.8942609 4.04243478 63.8942609 6.49669565 63.8942609 8.99686957 65.3238261 10.317913 67.202087 10.317913 68.1182609 10.317913 68.925913 9.88382609 69.5165217 9.13669565L69.5165217 9.89843478C69.5165217 11.373913 68.397913 11.7933913 67.4504348 11.7933913 66.5029565 11.7933913 65.712 11.5283478 65.1046957 10.8626087L64.2198261 12.2921739C65.1506087 13.1144348 66.1606957 13.4107826 67.4504348 13.4107826 69.2994783 13.4107826 71.5033043 12.7116522 71.5033043 9.8546087L71.5033043 2.8653913 69.5165217 2.8653913 69.5165217 2.86330435zM69.5165217 7.70921739C69.1909565 8.19130435 68.4751304 8.56278261 67.824 8.56278261 66.7053913 8.56278261 65.9290435 7.78643478 65.9290435 6.49669565 65.9290435 5.20695652 66.7053913 4.4306087 67.824 4.4306087 68.4751304 4.4306087 69.1909565 4.78747826 69.5165217 5.28417391L69.5165217 7.70921739z"/>
      </g>
      <g transform="translate(.417 29.635)">
        <polygon points="2.314 3.51 2.314 10.468 .109 10.468 .109 .109 2.375 .109 7.175 6.818 7.175 .109 9.379 .109 9.379 10.468 7.252 10.468"/>
        <path d="M18.5426087 6.912C18.5426087 4.45773913 17.0212174 2.78191304 14.784 2.78191304 12.5008696 2.78191304 10.9022609 4.53704348 10.9022609 6.71165217 10.9022609 9.11791304 12.626087 10.656 14.9092174 10.656 16.0737391 10.656 17.2382609 10.3137391 18 9.6146087L17.1297391 8.34156522C16.6476522 8.80695652 15.8253913 9.0866087 15.1262609 9.0866087 13.8532174 9.0866087 13.0914783 8.29565217 12.9683478 7.34817391L18.5446957 7.34817391 18.5446957 6.912 18.5426087 6.912zM12.9370435 6.01043478C13.0309565 5.2653913 13.5589565 4.34921739 14.786087 4.34921739 16.0904348 4.34921739 16.5871304 5.29669565 16.6351304 6.01043478L12.9370435 6.01043478zM20.3603478 8.60452174L20.3603478 4.69147826 19.1186087 4.69147826 19.1186087 2.96765217 20.3603478 2.96765217 20.3603478.91826087 22.3492174.91826087 22.3492174 2.96765217 23.8706087 2.96765217 23.8706087 4.69147826 22.3492174 4.69147826 22.3492174 8.07652174C22.3492174 8.54191304 22.5975652 8.89878261 23.0316522 8.89878261 23.325913 8.89878261 23.6055652 8.79026087 23.714087 8.68173913L24.1335652 10.1718261C23.8393043 10.4368696 23.3113043 10.653913 22.4869565 10.653913 21.1053913 10.653913 20.3603478 9.94017391 20.3603478 8.60452174z"/>
        <polygon points="30.534 5.359 28.95 10.468 26.838 10.468 24.555 2.968 26.605 2.968 28.003 8.014 29.649 2.968 31.402 2.968 33.049 8.014 34.447 2.968 36.497 2.968 34.214 10.468 32.118 10.468"/>
        <path d="M40.9544348 2.77982609C38.4855652 2.77982609 36.9933913 4.58086957 36.9933913 6.70956522 36.9933913 8.85286957 38.4834783 10.653913 40.9544348 10.653913 43.44 10.653913 44.930087 8.85286957 44.930087 6.70956522 44.930087 4.58295652 43.44 2.77982609 40.9544348 2.77982609zM40.9544348 8.89878261C39.7273043 8.89878261 39.0448696 7.88869565 39.0448696 6.70956522 39.0448696 5.54504348 39.7273043 4.53495652 40.9544348 4.53495652 42.1815652 4.53495652 42.8806957 5.54504348 42.8806957 6.70956522 42.8806957 7.89078261 42.1815652 8.89878261 40.9544348 8.89878261zM46.3909565 2.96765217L48.3631304 2.96765217 48.3631304 3.99234783C48.8911304 3.32452174 49.824 2.79652174 50.7547826 2.79652174L50.7547826 4.72278261C50.6149565 4.69147826 50.4292174 4.67686957 50.210087 4.67686957 49.5568696 4.67686957 48.6886957 5.03373913 48.3610435 5.51582609L48.3610435 10.4702609 46.3888696 10.4702609 46.3888696 2.96765217 46.3909565 2.96765217z"/>
        <polygon points="54.856 7.58 53.954 8.542 53.954 10.468 51.982 10.468 51.982 .109 53.954 .109 53.954 6.307 56.797 2.968 59.219 2.968 56.254 6.367 59.313 10.468 56.845 10.468"/>
      </g>
    </g>
    <g fill-rule="nonzero">
      <path fill="#4D556C" d="M19.1373913,27.1053913 C22.9210435,29.2904348 24.2170435,34.128 22.034087,37.9137391 L18.5238261,43.9930435 C16.3387826,47.7766957 11.5012174,49.0726957 7.71547826,46.8897391 C3.93182609,44.7046957 2.63582609,39.8671304 4.81878261,36.0813913 L8.32904348,30.002087 C10.5161739,26.2163478 15.3537391,24.9203478 19.1373913,27.1053913 Z M17.6598261,29.666087 C15.2222609,28.2594783 12.0438261,29.1986087 10.562087,31.7676522 L7.46713043,37.1290435 C5.9853913,39.698087 6.75965217,42.9203478 9.19513043,44.3269565 C11.6326957,45.7335652 14.8111304,44.7923478 16.2928696,42.2253913 L19.3878261,36.864 C20.8716522,34.2970435 20.0973913,31.0747826 17.6598261,29.666087 Z"/>
      <polygon fill="#2A3867" points="9.585 6.668 20.269 24.958 9.946 42.837 0 23.27"/>
      <polygon fill="#A4C7FA" points="41.449 24.791 20.269 24.685 9.946 42.563 31.866 41.393"/>
      <polygon fill="url(#logo-beta-a)" points="30.691 6.576 41.545 24.791 20.237 24.682 9.489 6.284"/>
      <path fill="url(#logo-beta-b)" d="M22.4201739,21.4205217 C26.2038261,23.6055652 31.0434783,22.3095652 33.2285217,18.5238261 L32.9238261,19.0518261 L32.9238261,19.0518261 L33.4476522,18.146087 C33.8337391,17.4761739 33.3933913,16.9836522 32.7234783,16.5975652 C32.0535652,16.2093913 31.4066087,16.0737391 31.0205217,16.7436522 L30.6949565,17.3071304 L30.6845217,17.3008696 L30.9996522,16.7561739 C29.517913,19.3252174 26.3394783,20.2643478 23.901913,18.8577391 C21.4643478,17.4511304 20.690087,14.2267826 22.1718261,11.6598261 L21.8566957,12.2045217 L21.8462609,12.1982609 L22.1718261,11.6347826 C22.56,10.9648696 22.1175652,10.4723478 21.4476522,10.0862609 C20.7777391,9.69808696 20.1307826,9.56243478 19.7446957,10.2323478 L19.4191304,10.7958261 L19.4191304,10.7958261 L19.5255652,10.610087 C17.3405217,14.397913 18.6365217,19.2354783 22.4201739,21.4205217 L22.4201739,21.4205217 Z"/>
      <path fill="#4D556C" d="M34.173913,1.06226087 C37.9575652,3.24730435 39.2535652,8.08486957 37.0706087,11.8706087 L34.2448696,16.7624348 L34.2448696,16.7624348 L33.7231304,17.6681739 C33.3349565,18.338087 32.690087,18.2024348 32.0201739,17.8163478 C31.3502609,17.4281739 30.9078261,16.9377391 31.296,16.2678261 L31.6215652,15.7043478 L31.6111304,15.698087 L34.4264348,10.8229565 C35.9081739,8.256 35.133913,5.03165217 32.6984348,3.62504348 C30.2608696,2.21843478 27.0824348,3.15756522 25.6006957,5.7266087 L22.7853913,10.6017391 L22.7749565,10.5954783 L22.4493913,11.1589565 C22.0612174,11.8288696 21.4163478,11.6932174 20.7464348,11.3071304 C20.0765217,10.9189565 19.634087,10.4285217 20.0222609,9.7586087 L20.3478261,9.19513043 L20.3478261,9.19513043 L23.3697391,3.96104348 C25.5526957,0.173217391 30.3902609,-1.12278261 34.173913,1.06226087 L34.173913,1.06226087 Z"/>
    </g>
    <g transform="translate(130)">
      <rect width="42" height="19" fill="#DA2F40"/>
      <text fill="#FFF" font-family="Montserrat-Medium, Montserrat" font-size="9" font-weight="400" letter-spacing=".375">
        <tspan x="8.101" y="13">BETA</tspan>
      </text>
    </g>
  </g>
</svg>
