<?xml version="1.0" encoding="UTF-8"?>
<svg width="1614px" height="328px" viewBox="0 0 1614 328" version="1.1" xmlns="http://www.w3.org/2000/svg" xmlns:xlink="http://www.w3.org/1999/xlink">
    <g id="tracealliance_logo_white" stroke="none" stroke-width="1" fill="#fe0000" fill-rule="evenodd">
        <path d="M173.115948,184.599562 C150.770612,224.374259 129.079544,247.751421 129.079544,247.751421 L56.0323591,193.696839 C125.076232,103.88013 125.076232,0 125.076232,0 L221.137709,0 L221.210284,0 C221.210284,0 223.235454,126.101335 299.675599,204.113779 L239.423803,271.649226 C239.423803,271.649226 204.397982,240.128417 173.115948,184.599562 Z M31.0179131,220.597509 C35.2503573,217.193261 39.2216508,213.389631 42.8717588,209.199633 L112.520982,270.130777 L112.433931,270.214857 C105.282802,278.384654 97.4332685,285.914839 88.9743834,292.721335 L89.001399,292.691306 L31.0179131,220.597509 Z M2.84217094e-14,239.61766 C5.22801922,237.252402 10.2229038,234.438717 14.9326237,231.220647 L69.9403911,311.161932 L69.9433928,311.160931 L69.9403911,311.162933 L70.0014264,311.251017 L68.9137982,311.864603 C59.9936468,317.923384 50.5882151,323.233451 40.7915574,327.738751 L40.3292905,328 L2.84217094e-14,239.61766 Z M313.990332,215.205364 C318.537958,218.238258 323.949083,220.987882 329,223.213005 L291.814525,303.141278 L291.367267,302.895043 C281.902801,298.654997 272.816554,293.653224 264.202579,287.942775 L263.151972,287.364223 L263.211006,287.280142 L267.232329,290.013751 L263.211006,287.280142 L313.990332,215.205364 Z" id="Combined-Shape" fill="#ffffff"></path>
        <path d="M420.482882,223 C405.361778,223 397.801226,214.36533 397.801226,199.202006 L397.801226,132.651862 L381,132.651862 L381,118.752149 L397.801226,118.752149 L397.801226,90.9527221 L413.762391,90.9527221 L413.762391,118.752149 L434.343894,118.752149 L434.343894,132.651862 L413.762391,132.651862 L413.762391,195.832378 C413.762391,203.41404 417.122637,208.889685 423.843127,208.889685 C428.463464,208.889685 432.453756,206.783668 434.553909,204.467049 L439.174246,216.471347 C435.183955,220.262178 429.513541,223 420.482882,223 Z M472.146653,220.472779 L456.395503,220.472779 L456.395503,118.752149 L472.146653,118.752149 L472.146653,134.968481 C480.337251,124.438395 492.098109,116.43553 505.959121,116.43553 L505.959121,132.651862 C504.068983,132.441261 502.178845,132.230659 499.868677,132.230659 C489.997956,132.230659 476.76699,140.233524 472.146653,148.446991 L472.146653,220.472779 Z M614.957077,220.472779 L599.205927,220.472779 L599.205927,205.309456 C591.645376,215.62894 579.254471,223 564.973429,223 C538.511497,223 519.820133,202.782235 519.820133,169.717765 C519.820133,137.074499 538.511497,116.224928 564.973429,116.224928 C578.624425,116.224928 591.01533,122.964183 599.205927,134.126074 L599.205927,118.752149 L614.957077,118.752149 L614.957077,220.472779 Z M568.96372,208.889685 C581.354624,208.889685 593.745529,201.518625 599.205927,192.673352 L599.205927,146.762178 C593.745529,137.916905 581.354624,130.335244 568.96372,130.335244 C548.382218,130.335244 536.201329,147.183381 536.201329,169.717765 C536.201329,192.252149 548.382218,208.889685 568.96372,208.889685 Z M691.192642,223 C660.950434,223 640.578947,199.623209 640.578947,169.507163 C640.578947,139.391117 660.950434,116.224928 691.192642,116.224928 C709.673991,116.224928 720.594788,123.80659 728.365355,133.915473 L717.864589,143.39255 C711.144098,134.126074 702.53347,130.335244 692.032703,130.335244 C670.611139,130.335244 656.960143,146.972779 656.960143,169.507163 C656.960143,192.041547 670.611139,208.889685 692.032703,208.889685 C702.53347,208.889685 711.144098,204.67765 717.864589,195.621777 L728.365355,205.309456 C720.594788,215.418338 709.673991,223 691.192642,223 Z M796.620337,223 C766.37813,223 744.746551,201.308023 744.746551,169.507163 C744.746551,140.022923 765.748084,116.224928 794.730199,116.224928 C825.392437,116.224928 843.453756,140.233524 843.453756,170.770774 L843.453756,174.772206 L761.547777,174.772206 C762.807869,193.936963 776.038835,209.942693 797.880429,209.942693 C809.641288,209.942693 821.192131,205.309456 829.382729,196.885387 L836.943281,207.204871 C826.652529,217.313754 813.001533,223 796.620337,223 Z M827.912621,162.97851 C827.702606,148.025788 817.62187,129.282235 794.520184,129.282235 C772.888605,129.282235 762.177823,147.604585 761.337762,162.97851 L827.912621,162.97851 Z M962.952478,220.472779 L936.070516,220.472779 L936.070516,207.415473 C928.089934,217.524355 917.169136,223 904.778232,223 C879.366377,223 859.834951,203.624642 859.834951,169.507163 C859.834951,136.442693 878.946346,116.224928 904.778232,116.224928 C916.749106,116.224928 927.879918,121.27937 936.070516,131.809456 L936.070516,118.752149 L962.952478,118.752149 L962.952478,220.472779 Z M913.178845,199.202006 C921.999489,199.202006 931.660194,194.358166 936.070516,187.618911 L936.070516,151.816619 C931.660194,145.077364 921.999489,140.022923 913.178845,140.022923 C897.847726,140.022923 887.34696,152.027221 887.34696,169.507163 C887.34696,187.197708 897.847726,199.202006 913.178845,199.202006 Z M1017.97649,223 C999.28513,223 989.41441,213.312321 989.41441,194.989971 L989.41441,80.0014327 L1016.08636,80.0014327 L1016.08636,187.829513 C1016.08636,194.358166 1019.4466,199.202006 1025.32703,199.202006 C1029.31732,199.202006 1033.0976,197.727794 1034.56771,196.04298 L1040.23812,216.471347 C1036.24783,220.051576 1028.89729,223 1017.97649,223 Z M1080.56106,223 C1061.8697,223 1051.99898,213.312321 1051.99898,194.989971 L1051.99898,80.0014327 L1078.67092,80.0014327 L1078.67092,187.829513 C1078.67092,194.358166 1082.03117,199.202006 1087.9116,199.202006 C1091.90189,199.202006 1095.68217,197.727794 1097.15227,196.04298 L1102.82269,216.471347 C1098.8324,220.051576 1091.48186,223 1080.56106,223 Z M1127.81451,107.80086 C1119.20388,107.80086 1112.06336,100.640401 1112.06336,91.7951289 C1112.06336,82.9498567 1119.20388,76 1127.81451,76 C1136.63516,76 1143.77568,82.9498567 1143.77568,91.7951289 C1143.77568,100.640401 1136.63516,107.80086 1127.81451,107.80086 Z M1141.25549,220.472779 L1114.58355,220.472779 L1114.58355,118.752149 L1141.25549,118.752149 L1141.25549,220.472779 Z M1264.32448,220.472779 L1237.44251,220.472779 L1237.44251,207.415473 C1229.46193,217.524355 1218.54113,223 1206.15023,223 C1180.73838,223 1161.20695,203.624642 1161.20695,169.507163 C1161.20695,136.442693 1180.31834,116.224928 1206.15023,116.224928 C1218.1211,116.224928 1229.25192,121.27937 1237.44251,131.809456 L1237.44251,118.752149 L1264.32448,118.752149 L1264.32448,220.472779 Z M1214.55084,199.202006 C1223.37149,199.202006 1233.03219,194.358166 1237.44251,187.618911 L1237.44251,151.816619 C1233.03219,145.077364 1223.37149,140.022923 1214.55084,140.022923 C1199.21972,140.022923 1188.71896,152.027221 1188.71896,169.507163 C1188.71896,187.197708 1199.21972,199.202006 1214.55084,199.202006 Z M1386.13337,220.472779 L1359.25141,220.472779 L1359.25141,158.977077 C1359.25141,144.866762 1351.90087,140.022923 1340.56004,140.022923 C1330.05927,140.022923 1322.07869,145.919771 1317.45835,151.816619 L1317.45835,220.472779 L1290.78641,220.472779 L1290.78641,118.752149 L1317.45835,118.752149 L1317.45835,131.809456 C1323.96883,124.227794 1336.56975,116.224928 1352.95095,116.224928 C1375.42259,116.224928 1386.13337,128.861032 1386.13337,148.657593 L1386.13337,220.472779 Z M1459.63873,223 C1428.55646,223 1405.87481,200.886819 1405.87481,169.507163 C1405.87481,138.338109 1428.55646,116.224928 1459.63873,116.224928 C1480.43025,116.224928 1493.03117,125.280802 1499.75166,134.547278 L1482.32039,150.974212 C1477.49004,143.813754 1470.1395,140.022923 1460.89882,140.022923 C1444.72764,140.022923 1433.38682,151.816619 1433.38682,169.507163 C1433.38682,187.197708 1444.72764,199.202006 1460.89882,199.202006 C1470.1395,199.202006 1477.49004,194.989971 1482.32039,188.040115 L1499.75166,204.467049 C1493.03117,213.733524 1480.43025,223 1459.63873,223 Z M1564.85641,223 C1533.98416,223 1510.67246,202.15043 1510.67246,169.507163 C1510.67246,140.022923 1532.51405,116.224928 1563.17629,116.224928 C1593.62851,116.224928 1614,138.969914 1614,172.034384 L1614,178.352436 L1538.6045,178.352436 C1540.49463,190.777937 1550.57537,201.097421 1567.79663,201.097421 C1576.40726,201.097421 1588.16811,197.517192 1594.67859,191.19914 L1606.64946,208.889685 C1596.56873,218.15616 1580.60756,223 1564.85641,223 Z M1588.37813,159.819484 C1587.53807,150.131805 1580.81758,138.127507 1563.17629,138.127507 C1546.58508,138.127507 1539.44456,149.710602 1538.39448,159.819484 L1588.37813,159.819484 Z" id="tracealliance" fill="#ffffff"></path>
    </g>
</svg>