<?xml version="1.0" encoding="UTF-8"?>
<svg width="97px" height="79px" viewBox="0 0 97 79" version="1.1" xmlns="http://www.w3.org/2000/svg" xmlns:xlink="http://www.w3.org/1999/xlink">
    <!-- Generator: Sketch 55.2 (78181) - https://sketchapp.com -->
    <title>Checklist</title>
    <desc>Created with Sketch.</desc>
    <g id="Desktop" stroke="none" stroke-width="1" fill="none" fill-rule="evenodd">
        <g id="About-Us" transform="translate(-912.000000, -688.000000)">
            <g id="BODY" transform="translate(311.000000, 151.000000)">
                <g id="functionality" transform="translate(65.000000, 458.000000)">
                    <g id="func" transform="translate(480.000000, 55.000000)">
                        <g id="Checklist" transform="translate(56.000000, 24.000000)">
                            <path d="M55.1018182,78.4436364 C45.08,81.0472727 32.5418182,74.5745455 20.8181818,65.7163636 C9.09454545,56.8581818 -1.78545455,45.5418182 0.847272727,36.5381818 C3.48,27.5345455 19.5963636,20.8436364 30.2,14.3709091 C40.8036364,7.89818182 45.8654545,1.64363636 52.1927273,0.290909091 C58.52,-1.06181818 66.0836364,2.48727273 75.3054545,7.56363636 C84.5272727,12.64 95.3781818,19.2 96.4545455,26.88 C97.5309091,34.56 88.8181818,43.6363636 80.7163636,53.8181818 C72.6145455,64 65.1381818,75.8545455 55.1018182,78.4436364 Z" id="Path" fill="#EFEFEF"></path>
                            <path d="M23.4654545,75.3018182 C20.3977253,75.2858505 17.9170383,72.7986696 17.9090909,69.7309091 L17.9090909,18.5890909 C17.9117839,18.4970174 17.9479884,18.4090921 18.0109091,18.3418182 L34.3454545,1.99272727 C34.4131251,1.91974361 34.507753,1.87768677 34.6072727,1.87636364 L67.3636364,1.87636364 C70.419993,1.90819247 72.8831151,4.39076031 72.8909091,7.44727273 L72.8909091,69.7309091 C72.8831151,72.7874215 70.419993,75.2699893 67.3636364,75.3018182 L23.4654545,75.3018182 Z" id="Path" fill="#FFFFFF"></path>
                            <path d="M67.3636364,2.24 C70.2329233,2.25589669 72.5550124,4.57798583 72.5709091,7.44727273 L72.5709091,69.7309091 C72.5629186,72.6034901 70.2362174,74.9301913 67.3636364,74.9381818 L23.4654545,74.9381818 C20.5928735,74.9301913 18.2661724,72.6034901 18.2581818,69.7309091 L18.2581818,18.5890909 L34.6072727,2.24 L67.3636364,2.24 L67.3636364,2.24 Z M67.3636364,1.45454545 L34.6072727,1.45454545 C34.4119362,1.46086938 34.2256714,1.53847971 34.0836364,1.67272727 L17.7490909,18.08 C17.6077988,18.2113169 17.5285577,18.3962126 17.5308582,18.5890909 L17.5308582,69.7309091 C17.54692,72.9971016 20.1992228,75.6363636 23.4654545,75.6363636 L67.3636364,75.6363636 C70.6411953,75.6363636 73.2984674,72.9793771 73.2984674,69.7018182 L73.2984674,7.44727273 C73.3137119,5.86327684 72.6953296,4.33881191 71.5806988,3.21325329 C70.4660679,2.08769467 68.9477084,1.45454545 67.3636364,1.45454545 Z" id="Shape" fill="#4D4D4D" fill-rule="nonzero"></path>
                            <path d="M65.2254545,59.6363636 L41.4581818,59.6363636 C40.8476561,59.6363636 40.3527273,60.1312925 40.3527273,60.7418182 C40.3527273,61.0336831 40.4696306,61.3133874 40.6773725,61.5183959 C40.8851144,61.7234043 41.1663428,61.8366188 41.4581818,61.8327273 L65.2254545,61.8327273 C65.5159755,61.8366805 65.7957553,61.7230156 66.0012037,61.5175673 C66.206652,61.3121189 66.3203169,61.0323391 66.3164634,60.7418182 C66.3202552,60.4499792 66.2070407,60.1687507 66.0020322,59.9610088 C65.7970238,59.753267 65.5173195,59.6363377 65.2254545,59.6363636 Z" id="Path" fill="#4D4D4D"></path>
                            <path d="M65.2254545,44.8727273 L41.4581818,44.8727273 C40.8476561,44.8727273 40.3527273,45.3676561 40.3527273,45.9781818 C40.3527273,46.5887075 40.8476561,47.0836364 41.4581818,47.0836364 L65.2254545,47.0836364 C65.8359802,47.0836364 66.3309091,46.5887075 66.3309091,45.9781818 C66.3309091,45.3676561 65.8359802,44.8727273 65.2254545,44.8727273 L65.2254545,44.8727273 Z" id="Path" fill="#4D4D4D"></path>
                            <path d="M41.4581818,32.3490909 L65.2254545,32.3490909 C65.7833071,32.2847831 66.2043135,31.8124561 66.2043135,31.2509091 C66.2043135,30.6893621 65.7833071,30.2170351 65.2254545,30.1527273 L41.4581818,30.1527273 C41.0356612,30.1040202 40.6226673,30.3020362 40.3960755,30.6619698 C40.1694837,31.0219034 40.1694837,31.4799147 40.3960755,31.8398484 C40.6226673,32.199782 41.0356612,32.397798 41.4581818,32.3490909 L41.4581818,32.3490909 Z" id="Path" fill="#4D4D4D"></path>
                            <path d="M34.9854545,54.7927273 L28.1781818,61.6 L25.1818182,58.5890909 C24.7477656,58.1697599 24.0595072,58.1697599 23.6254545,58.5890909 C23.4132597,58.7955474 23.2927462,59.0784921 23.290903,59.3745455 C23.2899122,59.6669507 23.4112074,59.9464571 23.6254545,60.1454545 L27.3927273,64 C27.6003398,64.2096353 27.8831396,64.3275786 28.1781818,64.3275786 C28.473224,64.3275786 28.7560238,64.2096353 28.9636364,64 L36.5418182,56.4072727 C36.750591,56.2021608 36.868191,55.9217631 36.868191,55.6290909 C36.868191,55.3364188 36.750591,55.056021 36.5418182,54.8509091 C36.1236215,54.4149505 35.4350336,54.3892089 34.9854545,54.7927273 Z" id="Path" fill="#4D4D4D"></path>
                            <path d="M34.9854545,40.0727273 L28.1781818,46.88 L25.1818182,43.8690909 C24.9142368,43.5454306 24.4863712,43.4013367 24.0775091,43.4971886 C23.668647,43.5930405 23.3494041,43.9122834 23.2535522,44.3211455 C23.1577003,44.7300075 23.3017942,45.1578732 23.6254545,45.4254545 L27.4072727,49.2072727 C27.6148853,49.416908 27.8976851,49.5348514 28.1927273,49.5348514 C28.4877695,49.5348514 28.7705693,49.416908 28.9781818,49.2072727 L36.5563636,41.6290909 C36.9196121,41.1897139 36.88916,40.5461587 36.4860461,40.1430448 C36.0829322,39.7399309 35.439377,39.7094788 35,40.0727273 L34.9854545,40.0727273 Z" id="Path" fill="#4D4D4D"></path>
                            <path d="M34.9854545,25.3381818 L28.1781818,32.1454545 L25.1818182,29.0909091 C24.9142368,28.7672488 24.4863712,28.6231549 24.0775091,28.7190067 C23.668647,28.8148586 23.3494041,29.1341016 23.2535522,29.5429636 C23.1577003,29.9518257 23.3017942,30.3796914 23.6254545,30.6472727 L27.4072727,34.4436364 C27.8462327,34.864776 28.5392219,34.864776 28.9781818,34.4436364 L36.5563636,26.8509091 C36.7651364,26.6457972 36.8827365,26.3653994 36.8827365,26.0727273 C36.8827365,25.7800551 36.7651364,25.4996574 36.5563636,25.2945455 C36.1086837,24.8776334 35.4093002,24.8970608 34.9854545,25.3381818 Z" id="Path" fill="#4D4D4D"></path>
                            <path d="M21.1672727,69.7309091 L21.1672727,18.5890909 L35.3636364,4.43636364 L35.3636364,2.24 L34.6654545,2.24 L18.2581818,18.5890909 L18.2581818,69.7309091 C18.2661724,72.6034901 20.5928735,74.9301913 23.4654545,74.9381818 L26.3745455,74.9381818 C23.5019644,74.9301913 21.1752633,72.6034901 21.1672727,69.7309091 Z" id="Path" fill="#E0E0E0"></path>
                            <path d="M18.2872727,18.9963636 C18.1229826,19.0136993 17.9676516,18.918111 17.9090909,18.7636364 C17.8565225,18.6270911 17.8909119,18.4723388 17.9963636,18.3709091 L34.3163636,1.94909091 C34.3836375,1.88617026 34.4715628,1.84996572 34.5636364,1.84727273 L34.7090909,1.84727273 C34.8420323,1.90529205 34.9277778,2.03676856 34.9272727,2.18181818 L35.0000176,18.5309091 C35.0009355,18.6280176 34.9644784,18.7217645 34.8981818,18.7927273 C34.8251058,18.855584 34.7327063,18.8915171 34.6363636,18.8945455 L18.2872727,18.9963636 Z" id="Path" fill="#CCCCCC"></path>
                            <path d="M34.5636364,2.21090909 L34.6363636,18.56 L18.2872727,18.6327273 L34.5636364,2.21090909 L34.5636364,2.21090909 Z M34.5636364,1.48363636 C34.3714646,1.48475552 34.1878881,1.56343115 34.0545455,1.70181818 L17.7781818,18.1090909 C17.5698332,18.3198558 17.5069234,18.6344046 17.6181818,18.9090909 C17.7297481,19.1806731 17.9936714,19.3585344 18.2872727,19.36 L18.2872727,19.36 L34.6218182,19.2872727 C34.8190339,19.2901326 35.0086173,19.2111395 35.1454545,19.0690909 C35.2771528,18.9324607 35.3502309,18.7497655 35.3490909,18.56 L35.3636364,2.21090909 C35.3621708,1.91730772 35.1843095,1.65338444 34.9127273,1.54181818 C34.8218769,1.52017857 34.727214,1.52017857 34.6363636,1.54181818 L34.5636364,1.48363636 Z" id="Shape" fill="#4D4D4D" fill-rule="nonzero"></path>
                            <polygon id="Path" fill="#AAAAAA" points="34.5636364 2.21090909 18.2872727 18.6327273 21.1963636 18.6181818 34.5781818 5.12"></polygon>
                        </g>
                    </g>
                </g>
            </g>
        </g>
    </g>
</svg>