<?xml version="1.0" encoding="UTF-8"?>
<svg width="18px" height="18px" viewBox="0 0 22 22" version="1.1" xmlns="http://www.w3.org/2000/svg" xmlns:xlink="http://www.w3.org/1999/xlink">
    <!-- Generator: Sketch 55.2 (78181) - https://sketchapp.com -->
    <title>Shape</title>
    <desc>Created with Sketch.</desc>
    <g id="Page-1" stroke="none" stroke-width="1" fill="none" fill-rule="evenodd">
        <g id="check-decagram" fill="#3D7EFD" fill-rule="nonzero">
            <path d="M22,11 L19.56,8.22 L19.9,4.54 L16.29,3.72 L14.4,0.54 L11,2 L7.6,0.54 L5.71,3.72 L2.1,4.53 L2.44,8.21 L0,11 L2.44,13.78 L2.1,17.47 L5.71,18.29 L7.6,21.47 L11,20 L14.4,21.46 L16.29,18.28 L19.9,17.46 L19.56,13.78 L22,11 L22,11 Z M9,16 L5,12 L6.41,10.59 L9,13.17 L15.59,6.58 L17,8 L9,16 Z" id="Shape"></path>
        </g>
    </g>
</svg>
