<?xml version="1.0" encoding="UTF-8"?>
<svg width="83px" height="79px" viewBox="0 0 83 79" version="1.1" xmlns="http://www.w3.org/2000/svg" xmlns:xlink="http://www.w3.org/1999/xlink">
    <!-- Generator: Sketch 55.2 (78181) - https://sketchapp.com -->
    <title>Credit card</title>
    <desc>Created with Sketch.</desc>
    <g id="Desktop" stroke="none" stroke-width="1" fill="none" fill-rule="evenodd">
        <g id="About-Us" transform="translate(-679.000000, -928.000000)">
            <g id="BODY" transform="translate(311.000000, 151.000000)">
                <g id="functionality" transform="translate(65.000000, 458.000000)">
                    <g id="func" transform="translate(240.000000, 295.000000)">
                        <g id="Credit-card" transform="translate(62.000000, 24.000000)">
                            <path d="M56.9333333,13.4933333 C65.3333333,19.8533333 75.4266667,26.3866667 77.3333333,34.8933333 C79.24,43.4 73.0933333,53.88 64.76,60.76 C56.4266667,67.64 46,70.9466667 34.3866667,72.08 C22.7733333,73.2133333 10.0266667,72.2 4.69333333,65.3333333 C-0.64,58.4666667 1.42666667,45.6933333 3.72,35.2133333 C6.01333333,24.7333333 8.49333333,16.5466667 13.8266667,10.2 C19.16,3.85333333 27.3466667,-0.72 34.6666667,0.0933333333 C41.9866667,0.906666667 48.6,7.12 56.9333333,13.4933333 Z" id="Path" fill="#EFEFEF"></path>
                            <path d="M14.8266667,52.3866667 C13.9685863,52.3866667 13.1458439,52.0448929 12.5403418,51.4368887 C11.9348396,50.8288845 11.5964542,50.0047397 11.5999315,49.1466667 L11.5999315,28.8666667 C11.5979493,28.765397 11.6420567,28.6686888 11.7198702,28.6038443 C11.7976837,28.5389997 11.9007603,28.5130545 12,28.5333333 L73.7333333,28.5333333 C73.9174282,28.5333333 74.0666667,28.6825718 74.0666667,28.8666667 L74.0666667,49.1466667 C74.0666667,50.9103543 72.6566477,52.3503768 70.8933333,52.3866667 L14.8933333,52.3866667 L14.8266667,52.3866667 Z" id="Path" fill="#FFFFFF"></path>
                            <path d="M73.6666667,28.8666667 L73.6666667,49.1466667 C73.6447895,50.7289678 72.3557857,52 70.7733333,52 L14.7733333,52 C13.2378006,51.9363889 12.0199298,50.6833872 12,49.1466667 L12,28.8666667 L73.7333333,28.8666667 L73.6666667,28.8666667 Z M73.7333333,28.2 L12,28.2 C11.6318102,28.2 11.3333333,28.4984768 11.3333333,28.8666667 L11.3333333,49.1466667 C11.3333333,51.1149689 12.9250448,52.7126556 14.8933333,52.72 L70.8933333,52.72 C72.8407474,52.6836614 74.4000001,51.0944197 74.4000001,49.1466667 L74.4000001,28.8666667 C74.4000001,28.4984768 74.1015232,28.2 73.7333333,28.2 Z" id="Shape" fill="#4D4D4D" fill-rule="nonzero"></path>
                            <rect id="Rectangle" fill="#FFFFFF" x="21.16" y="37.2266667" width="62.4" height="41.24" rx="4.84"></rect>
                            <path d="M80.3333333,37.56 C81.100693,37.56 81.8366237,37.8648325 82.379229,38.4074377 C82.9218342,38.950043 83.2266667,39.6859736 83.2266667,40.4533333 L83.2266667,75.24 C83.2266667,76.8379439 81.9312772,78.1333333 80.3333333,78.1333333 L24.3333333,78.1333333 C22.7353895,78.1333333 21.44,76.8379439 21.44,75.24 L21.44,40.4533333 C21.44,38.8553895 22.7353895,37.56 24.3333333,37.56 L80.3333333,37.56 L80.3333333,37.56 Z M80.3333333,36.8933333 L24.3333333,36.8933333 C22.3702361,36.9006448 20.7806448,38.4902361 20.7733333,40.4533333 L20.7733333,75.24 C20.7806448,77.2030972 22.3702361,78.7926886 24.3333333,78.8 L80.3333333,78.8 C82.2964306,78.7926886 83.8860219,77.2030972 83.8933333,75.24 L83.8933333,40.4533333 C83.8860219,38.4902361 82.2964306,36.9006448 80.3333333,36.8933333 Z" id="Shape" fill="#4D4D4D" fill-rule="nonzero"></path>
                            <path d="M12,20.5066667 C11.8159051,20.5066667 11.6666391,20.3574282 11.6666391,20.1733333 L11.6666391,14.3733333 C11.6631209,13.5152603 12.0015063,12.6911155 12.6070084,12.0831113 C13.2125106,11.4751071 14.035253,11.1333333 14.8933333,11.1333333 L70.8933333,11.1333333 C72.6775267,11.1406758 74.12,12.5891248 74.12,14.3733333 L74.12,20.1733333 C74.12,20.3574282 73.9707616,20.5066667 73.7866667,20.5066667 L12,20.5066667 Z" id="Path" fill="#FFFFFF"></path>
                            <path d="M70.7733333,11.4666667 C72.3734316,11.4740066 73.6666667,12.7732183 73.6666667,14.3733333 L73.6666667,20.1733333 L11.9999998,20.1733333 L11.9999998,14.3733333 C11.9999998,12.7987557 13.2526854,11.5100036 14.8266667,11.4666667 L70.8266667,11.4666667 L70.7733333,11.4666667 Z M70.8266667,10.8 L14.8266667,10.8 C12.8583781,10.8073444 11.2666667,12.4050311 11.2666667,14.3733333 L11.2666667,20.1733333 C11.2666667,20.5415232 11.5651435,20.84 11.9333333,20.84 L73.6666667,20.84 C74.0348565,20.84 74.3333333,20.5415232 74.3333333,20.1733333 L74.3333333,14.3733333 C74.3333333,12.4050311 72.7416219,10.8073444 70.7733333,10.8 L70.8266667,10.8 Z" id="Shape" fill="#4D4D4D" fill-rule="nonzero"></path>
                            <path d="M67.8666667,58.1866667 C66.1097505,58.1854179 64.4384904,57.4275209 63.28,56.1066667 C63.16,56.1066667 63.1866667,56.0133333 63.1866667,55.88 L63.1866667,48.2133333 C63.1921491,48.109785 63.2404508,48.0131816 63.32,47.9466667 C64.479946,46.6574209 66.132415,45.9208365 67.8666667,45.92 L68.2533333,45.92 C71.3163887,46.112203 73.765846,48.5388747 73.9866667,51.6 C74.1175996,53.2981417 73.5270868,54.9728749 72.36,56.2133333 C71.1983182,57.4624399 69.5724415,58.1764747 67.8666667,58.1866667 L67.8666667,58.1866667 Z" id="Path" fill="#F44C81"></path>
                            <path d="M67.8666667,46.2533333 L68.24,46.2533333 C70.8624654,46.4162299 73.0478379,48.3217374 73.5663611,50.8975856 C74.0848844,53.4734337 72.8070157,56.0760984 70.4518395,57.2410039 C68.0966633,58.4059094 65.2525731,57.8420275 63.52,55.8666667 L63.52,55.8666667 L63.52,48.2133333 L63.52,48.2133333 C64.6209312,46.967111 66.2038018,46.2533333 67.8666667,46.2533333 L67.8666667,46.2533333 Z M67.8666667,45.5866667 C66.0146428,45.5888489 64.2524387,46.3849962 63.0266667,47.7733333 C62.918107,47.8945382 62.8566075,48.0506524 62.8533333,48.2133333 L62.8533333,55.88 C62.8537747,56.0601781 62.925707,56.2328156 63.0533333,56.36 C64.2757114,57.7343144 66.0273874,58.520385 67.8666667,58.5200001 C69.6623319,58.515225 71.3758524,57.7670681 72.6,56.4533333 C73.8296513,55.1436146 74.4535957,53.3781905 74.32,51.5866667 C74.0808686,48.3643099 71.5043509,45.8105429 68.28,45.6 L67.8666667,45.5866667 Z" id="Shape" fill="#4D4D4D" fill-rule="nonzero"></path>
                            <rect id="Rectangle" fill="#4D4D4D" x="28.4533333" y="69.3466667" width="7.98666667" height="1.45333333" rx="0.726666667"></rect>
                            <rect id="Rectangle" fill="#4D4D4D" x="40.52" y="69.3466667" width="7.98666667" height="1.45333333" rx="0.726666667"></rect>
                            <rect id="Rectangle" fill="#4D4D4D" x="52.5733333" y="69.3466667" width="7.98666667" height="1.45333333" rx="0.726666667"></rect>
                            <rect id="Rectangle" fill="#4D4D4D" x="64.6266667" y="69.3466667" width="7.98666667" height="1.45333333" rx="0.726666667"></rect>
                            <rect id="Rectangle" fill="#4D4D4D" x="28.4533333" y="59.6" width="14.9466667" height="1.45333333" rx="0.726666667"></rect>
                            <path d="M24.16,75.24 L24.16,40.4533333 C24.16,38.8553895 25.4553895,37.56 27.0533333,37.56 L24.3866667,37.56 C23.619307,37.56 22.8833763,37.8648325 22.340771,38.4074377 C21.7981658,38.950043 21.4933333,39.6859736 21.4933333,40.4533333 L21.4933333,75.24 C21.4933333,76.8379439 22.7887228,78.1333333 24.3866667,78.1333333 L27.0533333,78.1333333 C25.4553895,78.1333333 24.16,76.8379439 24.16,75.24 L24.16,75.24 Z" id="Path" fill="#E0E0E0"></path>
                            <path d="M14.6666667,49.1466667 L14.6666667,28.8666667 L12,28.8666667 L12,49.1466667 C12.0211131,50.7033645 13.2702357,51.9642713 14.8266667,52 L17.4933333,52 C15.9369024,51.9642713 14.6877798,50.7033645 14.6666667,49.1466667 Z" id="Path" fill="#E0E0E0"></path>
                            <path d="M17.4933333,11.4666667 L14.8266667,11.4666667 C13.2526854,11.5100036 11.9994035,12.7987557 11.9999998,14.3733333 L11.9999998,20.1733333 L14.6666667,20.1733333 L14.6666667,14.3733333 C14.6660702,12.7987557 15.919352,11.5100036 17.4933333,11.4666667 L17.4933333,11.4666667 Z" id="Path" fill="#E0E0E0"></path>
                            <rect id="Rectangle" fill="#CCCCCC" x="11.6" y="19.84" width="62.4" height="9.36" rx="0.5"></rect>
                            <path d="M73.6666667,20.1733333 L73.6666667,28.8666667 L12,28.8666667 L12,20.1733333 L73.7333333,20.1733333 L73.6666667,20.1733333 Z M73.7333333,19.5066667 L12,19.5066667 C11.6318102,19.5066667 11.3333333,19.8051435 11.3333333,20.1733333 L11.3333333,28.8666667 C11.3333333,29.2348565 11.6318102,29.5333333 12,29.5333333 L73.7333333,29.5333333 C74.1015232,29.5333333 74.4,29.2348565 74.4,28.8666667 L74.4,20.1733333 C74.4,19.8051435 74.1015232,19.5066667 73.7333333,19.5066667 Z" id="Shape" fill="#4D4D4D" fill-rule="nonzero"></path>
                            <rect id="Rectangle" fill="#AAAAAA" x="11.9333333" y="20.1733333" width="2.66666667" height="8.69333333"></rect>
                            <path d="M64.8533333,55.88 L64.8533333,55.88 L64.8533333,48.2133333 L64.8533333,48.2133333 C65.798201,47.1539782 67.0972912,46.4759859 68.5066667,46.3066667 L68.24,46.3066667 C66.4503176,46.1909205 64.7077525,46.9096055 63.52,48.2533333 L63.52,48.2533333 L63.52,55.92 L63.52,55.92 C64.6153037,57.1754641 66.2005703,57.8951557 67.8666667,57.8933368 C68.0947587,57.8806281 68.3218538,57.8539111 68.5466667,57.8133333 C67.1173509,57.6526213 65.7998788,56.9629698 64.8533333,55.88 Z" id="Path" fill="#E0447C"></path>
                            <circle id="Oval" fill="#FF7799" cx="59.1733333" cy="52.0533333" r="6.13333333"></circle>
                            <path d="M59.1733333,46.2533333 C61.5203364,46.2696187 63.6261802,47.6987909 64.5080797,49.8738638 C65.3899792,52.0489366 64.8740766,54.5411155 63.2011405,56.1873152 C61.5282044,57.8335149 59.0280379,58.309203 56.8674542,57.3923788 C54.7068705,56.4755545 53.3118077,54.3469608 53.3333333,52 C53.3333333,48.7967485 55.9300818,46.2 59.1333333,46.2 L59.1733333,46.2533333 Z M59.1333333,45.5333333 C55.5671822,45.5553924 52.6920381,48.4603127 52.7066655,52.0265018 C52.7214049,55.592691 55.6203724,58.473837 59.1865843,58.4665432 C62.7527962,58.4592218 65.64,55.5662194 65.64,52 C65.6326651,48.4316012 62.7417321,45.5406682 59.1733333,45.5333333 L59.1333333,45.5333333 Z" id="Shape" fill="#4D4D4D" fill-rule="nonzero"></path>
                            <path d="M54.6666667,52 C54.6749575,49.0631444 56.8819097,46.5982368 59.8,46.2666667 C59.5792952,46.2312532 59.3566803,46.2089917 59.1333333,46.2 C55.9300819,46.2 53.3333335,48.7967485 53.3333335,52 C53.3333335,55.2032515 55.9300819,57.7999999 59.1333333,57.8 C59.3553612,57.8131452 59.5779722,57.8131452 59.8,57.8 C56.8595553,57.4598286 54.6470554,54.9599911 54.6666667,52 Z" id="Path" fill="#EF608F"></path>
                        </g>
                    </g>
                </g>
            </g>
        </g>
    </g>
</svg>