<?xml version="1.0" encoding="UTF-8"?>
<svg width="77px" height="80px" viewBox="0 0 77 80" version="1.1" xmlns="http://www.w3.org/2000/svg" xmlns:xlink="http://www.w3.org/1999/xlink">
    <!-- Generator: Sketch 55.2 (78181) - https://sketchapp.com -->
    <title>Delivery Van</title>
    <desc>Created with Sketch.</desc>
    <g id="Desktop" stroke="none" stroke-width="1" fill="none" fill-rule="evenodd">
        <g id="About-Us" transform="translate(-922.000000, -928.000000)">
            <g id="BODY" transform="translate(311.000000, 151.000000)">
                <g id="functionality" transform="translate(65.000000, 458.000000)">
                    <g id="func" transform="translate(480.000000, 295.000000)">
                        <g id="Delivery-Van" transform="translate(66.000000, 24.000000)">
                            <path d="M60.2898551,63.9536232 C54.1060763,70.108741 46.4448193,74.5721518 38.0405797,76.915942 C29.0318841,79.5826087 18.3304348,80.5565217 11.8956522,75.7565217 C5.46086957,70.9565217 3.37391304,60.3478261 2.3884058,50.8521739 C1.40289855,41.3565217 1.55362319,32.915942 5.33333333,27.0956522 C9.11304348,21.2753623 16.5681159,18.0637681 24.3478261,12.7536232 C32.1275362,7.44347826 40.2202899,0 48.2086957,0 C56.1971014,0 64.0231884,7.29275362 68.4057971,15.7333333 C72.543607,23.8813491 73.8100285,33.1875044 72,42.1449275 C70.3017455,50.3990356 66.2320698,57.9783029 60.2898551,63.9536232 Z" id="Path" fill="#EFEFEF"></path>
                            <path d="M52.8347826,63.0492754 C52.6747001,63.0492754 52.5449275,62.9195028 52.5449275,62.7594203 L52.5449275,31.8492754 C52.5449275,31.6891928 52.6747001,31.5594203 52.8347826,31.5594203 L66.284058,31.5594203 C68.4685156,31.5639577 70.458548,32.8156071 71.4086957,34.7826087 L75.3855072,42.8985507 C75.7716684,43.6807409 75.9701583,44.5421869 75.9653074,45.4144928 L75.9653074,59.9652174 C75.9525234,61.667729 74.5721124,63.0429699 72.8695652,63.0492754 L52.8347826,63.0492754 Z" id="Path" fill="#FF7799"></path>
                            <path d="M66.284058,31.8492754 C68.3513847,31.8584592 70.2362857,33.0342784 71.1536232,34.8869565 L75.1304348,42.8985507 C75.4949396,43.6416188 75.6815033,44.4593236 75.6755092,45.2869565 L75.6755092,59.9652174 C75.6689777,61.5102866 74.4146476,62.7594203 72.8695652,62.7594203 L52.8347826,62.7594203 L52.8347826,31.8492754 L66.284058,31.8492754 L66.284058,31.8492754 Z M66.284058,31.2695652 L52.8347826,31.2695652 C52.5146175,31.2695652 52.2550725,31.5291103 52.2550725,31.8492754 L52.2550725,62.7594203 C52.2550725,63.0795854 52.5146175,63.3391304 52.8347826,63.3391304 L72.8695652,63.3391304 C74.7277128,63.3328859 76.2360574,61.8348723 76.2551135,59.9768116 L76.2551135,45.3217391 C76.2584908,44.4010843 76.0481388,43.4922045 75.6405797,42.6666667 L71.6753623,34.6202899 C70.6537722,32.5808536 68.5650401,31.2961711 66.284058,31.3043478 L66.284058,31.2695652 Z" id="Shape" fill="#4D4D4D" fill-rule="nonzero"></path>
                            <path d="M58.4,48.8927536 C57.9839637,48.902081 57.581576,48.744116 57.2829935,48.4542511 C56.9844109,48.1643863 56.8145952,47.7668546 56.8115499,47.3507246 L56.8115499,37.3913043 C56.8084768,36.9813851 56.9699389,36.5873501 57.2598039,36.2974851 C57.549669,36.00762 57.9437039,35.846158 58.3536232,35.8491683 L66.2492754,35.8491683 C66.7883919,35.842578 67.2820173,36.1505278 67.5130435,36.6376812 L71.315942,44.3594203 C71.5202629,44.7701662 71.6273718,45.2224039 71.6289855,45.6811594 L71.6289855,47.6057971 C71.6289855,48.3165636 71.0527954,48.8927536 70.342029,48.8927536 L58.4,48.8927536 Z" id="Path" fill="#FFFFFF"></path>
                            <path d="M66.284058,36.1391304 C66.7119332,36.1288836 67.1045004,36.3753792 67.2811594,36.7652174 L71.0956522,44.4869565 C71.2687247,44.8496264 71.3635329,45.2446608 71.3739822,45.6463768 L71.3739822,47.5710145 C71.3770542,47.8364127 71.2730117,48.0918585 71.0853337,48.2795366 C70.8976556,48.4672146 70.6422098,48.5712571 70.3768116,48.5681851 L58.4,48.5681851 C57.706543,48.5681851 57.1425939,48.0093698 57.1362319,47.315942 L57.1362319,37.3913043 C57.1362319,36.6997478 57.6968492,36.1391304 58.3884058,36.1391304 L66.284058,36.1391304 L66.284058,36.1391304 Z M66.284058,35.5594138 L58.3884058,35.5594138 C57.3766842,35.5594138 56.5565217,36.3795827 56.5565217,37.3913043 L56.5565217,47.3507246 C56.5628967,48.3643188 57.3863858,49.1826087 58.4,49.1826087 L70.3768116,49.1826087 C71.2476606,49.1826087 71.9536232,48.4766461 71.9536232,47.6057971 L71.9536232,45.6811594 C71.9500076,45.1791582 71.8351768,44.6841979 71.6173913,44.2318841 L67.8028986,36.5101449 C67.5217662,35.927353 66.9311118,35.5576304 66.284058,35.5594138 L66.284058,35.5594138 Z" id="Shape" fill="#4D4D4D" fill-rule="nonzero"></path>
                            <path d="M2.70144928,63.0376812 C1.36956257,63.0376812 0.289855072,61.9579737 0.289855072,60.626087 L0.289855072,55.1652174 C0.289855072,55.0051349 0.419627609,54.8753623 0.579710145,54.8753623 L52.8347826,54.8753623 C52.9948651,54.8753623 53.1246377,55.0051349 53.1246377,55.1652174 L53.1246377,62.7478261 C53.1246377,62.9079086 52.9948651,63.0376812 52.8347826,63.0376812 L2.70144928,63.0376812 Z" id="Path" fill="#CCCCCC"></path>
                            <path d="M52.8347826,55.1652174 L52.8347826,62.7478582 L2.70144928,62.7478582 C2.13778273,62.7509318 1.59630374,62.5283895 1.19772526,62.129811 C0.799146768,61.7312325 0.576604473,61.1897535 0.57967807,60.626087 L0.57967807,55.1652174 L52.8347826,55.1652174 L52.8347826,55.1652174 Z M52.8347826,54.5855072 L0.579710145,54.5855072 C0.259545073,54.5855072 0,54.8450523 0,55.1652174 L0,60.626087 C0,62.1180562 1.20948004,63.3275362 2.70144928,63.3275362 L52.8347826,63.3275362 C53.1549477,63.3275362 53.4144928,63.0679912 53.4144928,62.7478261 L53.4144928,55.1652174 C53.4144928,54.8450523 53.1549477,54.5855072 52.8347826,54.5855072 Z" id="Shape" fill="#4D4D4D" fill-rule="nonzero"></path>
                            <circle id="Oval" fill="#FFFFFF" cx="63.1304348" cy="62.7594203" r="7.87246377"></circle>
                            <path d="M63.1304348,55.1768027 C66.2041083,55.1721225 68.977519,57.0206699 70.15593,59.8594791 C71.334341,62.6982884 70.6853504,65.9675001 68.5119325,68.140918 C66.3385146,70.3143359 63.0693029,70.9633265 60.2304936,69.7849155 C57.3916843,68.6065045 55.543137,65.8330938 55.5478172,62.7594203 C55.5478172,58.5716611 58.9426756,55.1768027 63.1304348,55.1768027 L63.1304348,55.1768027 Z M63.1304348,54.5971014 C58.6481238,54.5971014 55.0144928,58.2307325 55.0144928,62.7130435 C55.0144928,67.1953545 58.6481238,70.8289855 63.1304348,70.8289855 C67.6127458,70.8289855 71.2463768,67.1953545 71.2463768,62.7130435 C71.2147914,58.2438809 67.5995973,54.6286868 63.1304348,54.5971014 L63.1304348,54.5971014 Z" id="Shape" fill="#4D4D4D" fill-rule="nonzero"></path>
                            <path d="M63.1304348,66.1681357 C61.2493867,66.1617178 59.7290803,64.6327712 59.7333331,62.7517171 C59.7376039,60.870663 61.2648228,59.3486211 63.1458806,59.3507443 C65.0269383,59.352872 66.5507246,60.8783613 66.5507246,62.7594203 C66.5507246,63.665475 66.1900094,64.5342518 65.5482451,65.1738405 C64.9064809,65.8134293 64.0364843,66.1711978 63.1304348,66.1681357 L63.1304348,66.1681357 Z" id="Path" fill="#CCCCCC"></path>
                            <path d="M63.1304348,59.6405797 C64.391888,59.6405797 65.5291305,60.4004608 66.0118678,61.5658917 C66.494605,62.7313225 66.2277703,64.0727915 65.3357881,64.9647736 C64.443806,65.8567558 63.102337,66.1235905 61.9369062,65.6408533 C60.7714753,65.158116 60.0115942,64.0208736 60.0115942,62.7594203 C60.0179523,61.0395727 61.4105872,59.6469378 63.1304348,59.6405797 L63.1304348,59.6405797 Z M63.1304348,59.0608514 C61.0893031,59.0672681 59.439224,60.7259883 59.4434781,62.7671255 C59.4477487,64.8082628 61.104741,66.460077 63.1458816,66.4579529 C65.1870222,66.4558247 66.8405797,64.800562 66.8405797,62.7594203 C66.8405797,61.7764915 66.4493258,60.8339893 65.7532033,60.1400423 C65.0570809,59.4460952 64.1133587,59.0577883 63.1304348,59.0608514 L63.1304348,59.0608514 Z" id="Shape" fill="#4D4D4D" fill-rule="nonzero"></path>
                            <path d="M2.89855072,60.626087 L2.89855072,55.1652174 L0.57967807,55.1652174 L0.57967807,60.626087 C0.576604473,61.1897535 0.799146768,61.7312325 1.19772526,62.129811 C1.59630374,62.5283895 2.13778273,62.7509318 2.70144928,62.7478582 L5.02028986,62.7478582 C4.45662331,62.7509318 3.91514432,62.5283895 3.51656584,62.129811 C3.11798735,61.7312325 2.89544505,61.1897535 2.89855072,60.626087 L2.89855072,60.626087 Z" id="Path" fill="#AAAAAA"></path>
                            <path d="M0.579710145,55.4550725 C0.419627609,55.4550725 0.289855072,55.3252999 0.289855072,55.1652174 L0.289855072,15.7449275 C0.289855072,13.7452133 1.90754233,12.1223309 3.90724638,12.115942 L49.5188406,12.115942 C51.5185446,12.1223309 53.1362319,13.7452133 53.1362319,15.7449275 L53.1362319,55.1652174 C53.1362319,55.3252999 53.0064593,55.4550725 52.8463768,55.4550725 L0.579710145,55.4550725 Z" id="Path" fill="#FFFFFF"></path>
                            <path d="M49.5188406,12.3826087 C51.3565881,12.3826087 52.8463768,13.8723974 52.8463768,15.7101449 L52.8463768,55.1304348 L0.579710145,55.1304348 L0.579710145,15.7101449 C0.579710145,13.8723974 2.06949886,12.3826087 3.90724638,12.3826087 L49.5188406,12.3826087 L49.5188406,12.3826087 Z M49.5188406,11.8028986 L3.90724638,11.8028986 C2.87098021,11.8028986 1.8771568,12.2145537 1.14440597,12.9473045 C0.411655133,13.6800554 0,14.6738788 0,15.7101449 L0,55.1304348 C0,55.4505999 0.259545073,55.7101449 0.579710145,55.7101449 L52.8347826,55.7101449 C53.1544039,55.7042317 53.4138464,55.4498764 53.426087,55.1304348 L53.426087,15.7101449 C53.426087,13.5522323 51.6767532,11.8028986 49.5188406,11.8028986 Z" id="Shape" fill="#4D4D4D" fill-rule="nonzero"></path>
                            <path d="M31.7101449,31.4086957 C31.5086819,31.4083327 31.3101179,31.3606774 31.1304348,31.2695652 L25.9246377,28.5681159 C25.8291979,28.5141152 25.7212489,28.4861284 25.6115942,28.4869565 C25.5016603,28.4837673 25.3930874,28.5119159 25.2985507,28.5681159 L20.0811594,31.3043478 C19.9019421,31.3967201 19.7030691,31.4444496 19.5014493,31.4434928 C19.178197,31.4408614 18.867768,31.3166898 18.6318841,31.0956522 C18.3793387,30.858083 18.2366035,30.5264335 18.2376751,30.1797101 L18.2376751,12.3710145 C18.2376751,12.210932 18.3674537,12.0811594 18.5275362,12.0811594 L32.684058,12.0811594 C32.8441405,12.0811594 32.973913,12.210932 32.973913,12.3710145 L32.973913,30.1449275 C32.973913,30.8428874 32.4081048,31.4086957 31.7101449,31.4086957 Z" id="Path" fill="#FF7799"></path>
                            <path d="M32.684058,12.3826087 L32.684058,30.1449275 C32.684058,30.6828049 32.2480222,31.1188406 31.7101449,31.1188406 C31.557177,31.1188406 31.4063366,31.0829968 31.2695652,31.0144928 L26.0521739,28.3130435 C25.9182277,28.2359281 25.7661482,28.1959072 25.6115942,28.1971014 C25.4531873,28.1943962 25.2969811,28.2344491 25.1594203,28.3130435 L19.9536232,31.0144928 C19.8123829,31.0820379 19.6580053,31.1176635 19.5014493,31.1188406 C18.9726489,31.1062465 18.5505747,30.6738778 18.5507246,30.1449275 L18.5507246,12.3826087 L32.684058,12.3826087 L32.684058,12.3826087 Z M32.684058,11.8028986 L18.5507246,11.8028986 C18.2305596,11.8028986 17.9710145,12.0624436 17.9710145,12.3826087 L17.9710145,30.1449275 C17.9710145,31.0029699 18.6665953,31.698585 19.5246377,31.698585 C19.7711725,31.7002256 20.0142407,31.6404547 20.2318841,31.5246377 L25.4492754,28.8231884 C25.5098877,28.8057928 25.5741703,28.8057928 25.6347826,28.8231884 C25.6916747,28.8073715 25.7518035,28.8073715 25.8086957,28.8231884 L31.026087,31.5246377 C31.2442419,31.6391105 31.4869687,31.6987974 31.7333333,31.698585 C32.5823065,31.6858781 33.2637681,30.9939953 33.2637681,30.1449275 L33.2637681,12.3826087 C33.2637681,12.0624436 33.004223,11.8028986 32.684058,11.8028986 L32.684058,11.8028986 Z" id="Shape" fill="#4D4D4D" fill-rule="nonzero"></path>
                            <path d="M16.1507246,44.4405797 L4.32463768,44.4405797 C3.9468429,44.4405797 3.64047785,44.7468429 3.64047785,45.1246377 C3.6374072,45.3070152 3.70845818,45.4828574 3.83743807,45.6118373 C3.96641796,45.7408172 4.14226016,45.8118682 4.32463768,45.8086957 L16.1507246,45.8086957 C16.5285194,45.8086957 16.8347826,45.5024325 16.8347826,45.1246377 C16.8347826,44.7468429 16.5285194,44.4405797 16.1507246,44.4405797 L16.1507246,44.4405797 Z" id="Path" fill="#4D4D4D"></path>
                            <path d="M16.1507246,48.6956522 L4.32463768,48.6956522 C3.97799783,48.7406851 3.71860652,49.0359545 3.71860652,49.3855072 C3.71860652,49.73506 3.97799783,50.0303294 4.32463768,50.0753623 L16.1507246,50.0753623 C16.4185394,50.1101549 16.6822897,49.9867998 16.8272658,49.7589463 C16.9722418,49.5310929 16.9722418,49.2399216 16.8272658,49.0120682 C16.6822897,48.7842147 16.4185394,48.6608596 16.1507246,48.6956522 L16.1507246,48.6956522 Z" id="Path" fill="#4D4D4D"></path>
                            <path d="M6.22608696,12.3826087 L3.90724638,12.3826087 C2.06949886,12.3826087 0.579710145,13.8723974 0.579710145,15.7101449 L0.579710145,55.1304348 L2.89855072,55.1304348 L2.89855072,15.7101449 C2.89855072,13.8723974 4.38833944,12.3826087 6.22608696,12.3826087 L6.22608696,12.3826087 Z" id="Path" fill="#E0E0E0"></path>
                            <circle id="Oval" fill="#FFFFFF" cx="11.9188406" cy="62.7594203" r="7.87246377"></circle>
                            <path d="M11.9188406,55.1768027 C14.9914632,55.1768027 17.7613159,57.0283403 18.9360716,59.8675231 C20.1108273,62.7067059 19.4589717,65.9740157 17.2846402,68.1450276 C15.1103087,70.3160395 11.8420068,70.9629023 9.00462222,69.78381 C6.16723762,68.6047177 4.31994665,65.8320394 4.32462877,62.7594203 C4.32462877,60.746377 5.12510638,58.8159517 6.54962995,57.3936029 C7.97415353,55.9712542 9.90579963,55.1737335 11.9188406,55.1768027 L11.9188406,55.1768027 Z M11.9188406,54.5971014 C7.43652957,54.5971014 3.80289855,58.2307325 3.80289855,62.7130435 C3.80289855,67.1953545 7.43652957,70.8289855 11.9188406,70.8289855 C16.4011516,70.8289855 20.0347826,67.1953545 20.0347826,62.7130435 C20.0031972,58.2438809 16.3880031,54.6286868 11.9188406,54.5971014 Z" id="Shape" fill="#4D4D4D" fill-rule="nonzero"></path>
                            <path d="M11.9188406,66.1681159 C10.03627,66.1681159 8.51014493,64.6419909 8.51014493,62.7594203 C8.51014493,60.8768497 10.03627,59.3507246 11.9188406,59.3507246 C13.8014112,59.3507246 15.3275362,60.8768497 15.3275362,62.7594203 C15.3211743,64.6393494 13.7987697,66.161754 11.9188406,66.1681159 Z" id="Path" fill="#CCCCCC"></path>
                            <path d="M11.9188406,59.6405797 C13.6398049,59.6469774 15.0303386,61.0461501 15.0260872,62.767121 C15.0218162,64.488092 13.6243709,65.8803616 11.903396,65.8782394 C10.1824211,65.8761123 8.7884058,64.4803965 8.7884058,62.7594203 C8.79479237,61.0350584 10.1944669,59.6405797 11.9188406,59.6405797 L11.9188406,59.6405797 Z M11.9188406,59.0608696 C9.87618742,59.0608696 8.22028986,60.7167671 8.22028986,62.7594203 C8.22028986,64.8020735 9.87618742,66.457971 11.9188406,66.457971 C13.9614937,66.457971 15.6173913,64.8020735 15.6173913,62.7594203 C15.6110262,60.7194095 13.9588514,59.0672347 11.9188406,59.0608696 Z" id="Shape" fill="#4D4D4D" fill-rule="nonzero"></path>
                            <path d="M20.8695652,30.1449275 L20.8695652,12.3826087 L18.5507246,12.3826087 L18.5507246,30.1449275 C18.5548366,30.4843179 18.7333057,30.7977084 19.0230972,30.9744105 C19.3128886,31.1511126 19.6732156,31.1662562 19.9768116,31.0144928 L20.9507246,30.5043478 C20.8979607,30.3918327 20.870269,30.2691982 20.8695652,30.1449275 Z" id="Path" fill="#EF608F"></path>
                            <path d="M59.4550725,47.3507246 L59.4550725,37.3913043 C59.4550725,36.6997478 60.0156898,36.1391304 60.7072464,36.1391304 L58.3884058,36.1391304 C57.6968492,36.1391304 57.1362319,36.6997478 57.1362319,37.3913043 L57.1362319,47.3507246 C57.1425939,48.0441525 57.706543,48.6028986 58.4,48.6028986 L60.7188406,48.6028986 C60.0253836,48.6028986 59.4614345,48.0441525 59.4550725,47.3507246 L59.4550725,47.3507246 Z" id="Path" fill="#E0E0E0"></path>
                        </g>
                    </g>
                </g>
            </g>
        </g>
    </g>
</svg>