<?xml version="1.0" encoding="UTF-8"?>
<svg width="23px" height="32px" viewBox="0 0 23 32" version="1.1" xmlns="http://www.w3.org/2000/svg" xmlns:xlink="http://www.w3.org/1999/xlink">
    <!-- Generator: Sketch 55.2 (78181) - https://sketchapp.com -->
    <title>Icon Power Point Label</title>
    <desc>Created with Sketch.</desc>
    <g id="Desktop" stroke="none" stroke-width="1" fill="none" fill-rule="evenodd">
        <g id="Dashboard---Documents" transform="translate(-272.000000, -443.000000)">
            <g id="BODY" transform="translate(16.000000, 104.000000)">
                <g id="document" transform="translate(240.000000, 328.000000)">
                    <g id="Icon-Power-Point-Label" transform="translate(4.000000, 4.000000)">
                        <g id="Power-point-logo" transform="translate(12.000000, 7.000000)">
                            <g id="One-Note" transform="translate(13.407638, 4.825893)" fill="#E24325">
                                <path d="M0.454717142,11.6095152 L0.454717142,9.9777536 L5.75,9.9777536 L5.75,8.88991255 L0.454717142,8.88991255 L0.454717142,0.0488366196 L8.21428571,0.0488366196 L8.21428571,13.9642857 L0.454717142,13.9642857 L0.454717142,12.6973562 L5.75,12.6973562 L5.75,11.6095152 L0.454717142,11.6095152 Z" id="Rectangle-46"></path>
                            </g>
                            <circle id="Path" fill="#FFFFFF" cx="15.1964286" cy="9.44642857" r="2.05357143"></circle>
                            <rect id="Rectangle-88" stroke="#FFFFFF" stroke-width="0.81" fill="#D8D8D8" x="14.3692857" y="3.69071429" width="8.22571429" height="1"></rect>
                            <path d="M22.595,4.51214286 L23,4.51214286 L22.595,4.10714286 L22.595,4.51214286 Z M22.595,15.2021429 L22.595,15.6071429 L23,15.2021429 L22.595,15.2021429 Z M22.5835714,15.2021429 L22.1785714,15.2021429 L22.5835714,15.6071429 L22.5835714,15.2021429 Z M22.5835714,4.51214286 L22.5835714,4.10714286 L22.1785714,4.51214286 L22.5835714,4.51214286 Z" id="Rectangle-88-Copy" stroke="#FFFFFF" stroke-width="0.81" fill="#D8D8D8"></path>
                            <polygon id="Path" fill="#E24325" points="13.3020786 0.76758662 13.3020786 22.5347593 0.264780859 20.2275726 0.264780859 2.98233046"></polygon>
                            <polygon id="Triangle-1" fill="#FFFFFF" points="18.2706791 9.54608569 15.2336382 9.54608563 15.2336382 6.33309037"></polygon>
                            <path d="M16.7205636,7.58537948 C16.9087769,7.73408387 17.2135406,8.09045536 17.325637,8.41898027 C17.4696102,8.84092783 17.4504256,9.31288907 17.4504256,9.31288907 L15.4380283,9.3128891 L15.4380283,7.13133683 C15.4380283,7.13133683 16.2452741,7.20986067 16.7205636,7.58537948 Z" id="Triangle-1-Copy" fill="#E24325"></path>
                            <text id="P" font-family="Montserrat-Regular, Montserrat" font-size="9.97318312" font-weight="normal" fill="#FFFFFF">
                                <tspan x="3.57091254" y="14.2024261">P</tspan>
                            </text>
                        </g>
                        <text id="PPTX" font-family="Montserrat-Medium, Montserrat" font-size="8" font-weight="400" fill="#7E7E7E">
                            <tspan x="13.472" y="39">PPTX</tspan>
                        </text>
                    </g>
                </g>
            </g>
        </g>
    </g>
</svg>