<?xml version="1.0" encoding="UTF-8"?>
<svg width="88px" height="79px" viewBox="0 0 88 79" version="1.1" xmlns="http://www.w3.org/2000/svg" xmlns:xlink="http://www.w3.org/1999/xlink">
    <!-- Generator: Sketch 55.2 (78181) - https://sketchapp.com -->
    <title>Mobile Rating</title>
    <desc>Created with Sketch.</desc>
    <g id="Desktop" stroke="none" stroke-width="1" fill="none" fill-rule="evenodd">
        <g id="About-Us" transform="translate(-435.000000, -928.000000)">
            <g id="BODY" transform="translate(311.000000, 151.000000)">
                <g id="functionality" transform="translate(65.000000, 458.000000)">
                    <g id="func" transform="translate(0.000000, 295.000000)">
                        <g id="Mobile-Rating" transform="translate(59.000000, 24.000000)">
                            <path d="M87.5471698,35.8490566 C88.2716981,45.2377358 82.1132075,57.7660377 71.5622642,66.6415094 C61.0113208,75.5169811 46.0377358,80.7245283 35.5320755,78.2188679 C25.0264151,75.7132075 18.9584906,65.554717 12.3924528,55.8490566 C5.82641509,46.1433962 -1.37358491,37.1169811 0.226415094,26.9132075 C1.82641509,16.709434 12.0754717,5.46415094 22.4,3.13962264 C32.7245283,0.81509434 42.9283019,7.42641509 51.154717,10.6867925 C59.3811321,13.9471698 65.5698113,13.9622642 72.4528302,17.0867925 C79.3358491,20.2113208 86.8830189,26.4754717 87.5471698,35.8490566 Z" id="Path" fill="#EFEFEF"></path>
                            <rect id="Rectangle" fill="#CCCCCC" x="15.9396226" y="0.377358491" width="42.7169811" height="76.2264151" rx="9.68"></rect>
                            <path d="M51.3207547,0.754716981 C55.1437062,0.763018751 58.2407548,3.86006738 58.2490566,7.68301887 L58.2490566,69.2981132 C58.2407548,73.1210647 55.1437062,76.2181133 51.3207547,76.2264151 L23.245283,76.2264151 C19.4257575,76.2098801 16.3335161,73.1176387 16.3169811,69.2981132 L16.3169811,7.68301887 C16.3335161,3.86349337 19.4257575,0.771251956 23.245283,0.754716981 L51.3207547,0.754716981 L51.3207547,0.754716981 Z M51.3207547,0 L23.245283,0 C19.0020689,0 15.5622642,3.43980471 15.5622642,7.68301887 L15.5622642,69.2981132 C15.5622642,73.5413274 19.0020689,76.9811321 23.245283,76.9811321 L51.3207547,76.9811321 C55.5639689,76.9811321 59.0037736,73.5413274 59.0037736,69.2981132 L59.0037736,7.68301887 C59.0037736,3.43980471 55.5639689,0 51.3207547,0 Z" id="Shape" fill="#4D4D4D" fill-rule="nonzero"></path>
                            <rect id="Rectangle" fill="#4D4D4D" x="30.9584906" y="4.70943396" width="12.6641509" height="1.56981132" rx="0.78490566"></rect>
                            <path d="M37.2981132,74.2189095 C36.1842632,74.2249713 35.1769722,73.5578924 34.747896,72.5299854 C34.3188198,71.5020784 34.552895,70.3168197 35.3405177,69.529197 C36.1281404,68.7415742 37.3133992,68.507499 38.3413062,68.9365752 C39.3692132,69.3656514 40.0362921,70.3729424 40.0302302,71.4867925 C40.0219394,72.9922459 38.8035666,74.2106187 37.2981132,74.2189095 Z" id="Path" fill="#F44C81"></path>
                            <path d="M37.2981132,69.1169811 C38.2579624,69.1108673 39.1267034,69.6843609 39.4982658,70.5693971 C39.8698283,71.4544333 39.67082,72.4761972 38.9942623,73.1570918 C38.3177046,73.8379864 37.2972332,74.0435194 36.4098409,73.6776196 C35.5224485,73.3117199 34.9434157,72.4466611 34.9433962,71.4867925 C34.9393761,70.8596715 35.1856858,70.2568549 35.6277174,69.8119898 C36.069749,69.3671247 36.6709794,69.1169327 37.2981132,69.1169811 L37.2981132,69.1169811 Z M37.2981132,68.3622274 C36.0330038,68.3561524 34.889063,69.1135321 34.4006859,70.2805912 C33.9123087,71.4476503 34.1758914,72.7940338 35.0683006,73.6907751 C35.9607098,74.5875164 37.3058012,74.857616 38.4752116,74.3748962 C39.644622,73.8921763 40.4075472,72.7519166 40.4075472,71.4867925 C40.4075472,69.7670407 39.0178449,68.3705721 37.2981132,68.3622274 L37.2981132,68.3622274 Z" id="Shape" fill="#4D4D4D" fill-rule="nonzero"></path>
                            <path d="M19.4566038,69.2981132 L19.4566038,7.68301887 C19.4731387,3.86349337 22.5653802,0.771251956 26.3849057,0.754716981 L23.245283,0.754716981 C19.4257575,0.771251956 16.3335161,3.86349337 16.3169811,7.68301887 L16.3169811,69.2981132 C16.3335161,73.1176387 19.4257575,76.2098801 23.245283,76.2264151 L26.3849057,76.2264151 C22.5653802,76.2098801 19.4731387,73.1176387 19.4566038,69.2981132 L19.4566038,69.2981132 Z" id="Path" fill="#AAAAAA"></path>
                            <rect id="Rectangle" fill="#FFFFFF" x="15.9396226" y="11.0037736" width="42.7169811" height="54.9886792" rx="0.5"></rect>
                            <path d="M58.2792453,11.3660377 L58.2792453,65.6 L16.3169811,65.6 L16.3169811,11.3660377 L58.2792453,11.3660377 L58.2792453,11.3660377 Z M58.2792453,10.6113208 L16.3169811,10.6113208 C15.9001625,10.6113208 15.5622642,10.9492191 15.5622642,11.3660377 L15.5622642,65.6 C15.5622642,66.0168187 15.9001625,66.354717 16.3169811,66.354717 L58.2792453,66.354717 C58.696064,66.354717 59.0339623,66.0168187 59.0339623,65.6 L59.0339623,11.3660377 C59.0339623,10.9492191 58.696064,10.6113208 58.2792453,10.6113208 Z" id="Shape" fill="#4D4D4D" fill-rule="nonzero"></path>
                            <path d="M45.5698113,44.5132075 L45.4188679,44.5132075 L37.2981132,41.1471698 L29.1773585,44.5132075 L29.0264151,44.5132075 C28.9576862,44.5351667 28.8838232,44.5351667 28.8150943,44.5132075 C28.7114896,44.4340521 28.6502181,44.3115091 28.6490566,44.1811321 L29.3283019,35.4113208 L23.6377358,28.6792453 C23.5481508,28.5814157 23.5191988,28.4424462 23.5622642,28.3169811 C23.6036776,28.1910475 23.7058695,28.0945329 23.8339623,28.0603774 L32.3773585,26.0075472 L36.9811321,18.4603774 C37.0501762,18.3530679 37.1705846,18.2899968 37.2981132,18.294129 L37.2981132,18.294129 C37.4256418,18.2899968 37.5460502,18.3530679 37.6150943,18.4603774 L42.1433962,26.0075472 L50.6867925,28.0603774 C50.8148852,28.0945329 50.9170771,28.1910475 50.9584906,28.3169811 C51.0015559,28.4424462 50.9726039,28.5814157 50.8830189,28.6792453 L45.2830189,35.3509434 L45.9622642,44.1207547 C45.9670596,44.2490419 45.9111286,44.37209 45.8113208,44.4528302 C45.7387049,44.496746 45.6545504,44.5177846 45.5698113,44.5132075 Z" id="Path" fill="#F44C81"></path>
                            <path d="M37.2981132,18.7018868 L41.9773585,26.3245283 L50.6716981,28.4226415 L44.8754717,35.2301887 L45.5698113,44.1358491 L37.2981132,40.754717 L29.0264151,44.1660377 L29.7207547,35.2603774 L23.9245283,28.4528302 L32.6188679,26.354717 L37.2981132,18.7320755 L37.2981132,18.7018868 Z M37.2981132,17.9773585 C37.0388526,17.983242 36.797863,18.1121434 36.6490566,18.3245283 L32.1207547,25.690566 L23.7283019,27.7132075 C23.4756181,27.7785716 23.2719541,27.9652636 23.1849057,28.2113208 C23.1020846,28.4624485 23.1596344,28.7386871 23.3358491,28.9358491 L28.9358491,35.5018868 L28.2566038,44.1207547 C28.2427519,44.3815773 28.3620962,44.631632 28.5735849,44.7849057 C28.7027317,44.8727303 28.8551428,44.9200303 29.0113208,44.9207547 C29.1062683,44.9365194 29.2031656,44.9365194 29.2981132,44.9207547 L37.2830189,41.6150943 L45.2830189,44.845283 C45.3779664,44.8610477 45.4748638,44.8610477 45.5698113,44.845283 C45.7262778,44.8464714 45.8792455,44.7989987 46.0075472,44.709434 C46.2190359,44.5561603 46.3383801,44.3061056 46.3245283,44.045283 L45.645283,35.4264151 L51.3207547,28.9056604 C51.4969694,28.7084985 51.5545191,28.4322598 51.4716981,28.1811321 C51.3894868,27.9319121 51.1837167,27.7432895 50.9283019,27.6830189 L42.4603774,25.6603774 L37.9320755,18.2943396 C37.7867605,18.0780557 37.5435846,17.9479849 37.2830189,17.9471698 L37.2981132,17.9773585 Z" id="Shape" fill="#4D4D4D" fill-rule="nonzero"></path>
                            <rect id="Rectangle" fill="#4D4D4D" x="23.9396226" y="51.0641509" width="26.7018868" height="1.56981132" rx="0.78490566"></rect>
                            <rect id="Rectangle" fill="#4D4D4D" x="23.9396226" y="57.3433962" width="26.7018868" height="1.56981132" rx="0.78490566"></rect>
                            <rect id="Rectangle" fill="#E0E0E0" x="16.3169811" y="11.3660377" width="3.13962264" height="54.2339623"></rect>
                        </g>
                    </g>
                </g>
            </g>
        </g>
    </g>
</svg>