<?xml version="1.0" encoding="UTF-8"?>
<svg width="94px" height="80px" viewBox="0 0 94 80" version="1.1" xmlns="http://www.w3.org/2000/svg" xmlns:xlink="http://www.w3.org/1999/xlink">
    <!-- Generator: Sketch 55.2 (78181) - https://sketchapp.com -->
    <title>Shopping</title>
    <desc>Created with Sketch.</desc>
    <g id="Desktop" stroke="none" stroke-width="1" fill="none" fill-rule="evenodd">
        <g id="About-Us" transform="translate(-433.000000, -688.000000)">
            <g id="BODY" transform="translate(311.000000, 151.000000)">
                <g id="functionality" transform="translate(65.000000, 458.000000)">
                    <g id="func" transform="translate(0.000000, 55.000000)">
                        <g id="Shopping" transform="translate(57.000000, 24.000000)">
                            <path d="M93.2464146,60.6101695 C91.0908301,70.0530204 81.0916993,77.6740548 71.6210343,79.3289874 C62.1503694,80.98392 53.2916123,76.700565 42.9865276,75.1568883 C32.6814429,73.6132116 20.9995654,74.8509344 12.0851804,69.0656236 C3.17079531,63.2803129 -3.00391134,50.4302477 1.52976967,42.9204694 C6.06345067,35.410691 21.2498914,32.9908735 33.3767927,24.3268144 C45.503694,15.6627553 54.696219,0.671012603 62.5814863,0.36505867 C70.4667536,0.0591047371 77.2255541,14.4111256 83.4419817,27.2055628 C89.6584094,40 95.3741851,51.1951326 93.2464146,60.6101695 Z" id="Path" fill="#EFEFEF"></path>
                            <path d="M28.3563668,61.4167753 C24.9362415,61.4091069 22.1677532,58.6343886 22.1677532,55.2142547 L22.1677532,18.9169926 C22.1677532,15.5298382 24.9135844,12.784007 28.3007388,12.784007 L84.1095176,12.784007 C87.4934993,12.7916544 90.2348558,15.5330109 90.2425033,18.9169926 L90.2425033,55.2142547 C90.2425033,58.6398122 87.4655402,61.4167753 84.0399826,61.4167753 L28.3563668,61.4167753 Z" id="Path" fill="#FFFFFF"></path>
                            <path d="M84.1095176,13.1316819 C87.3046565,13.1316819 89.894845,15.7218537 89.894845,18.9169926 L89.894845,55.2142547 C89.8985326,56.7681889 89.2828742,58.2595451 88.1840736,59.3583456 C87.085273,60.4571462 85.5939169,61.0728047 84.0399826,61.069117 L28.4119948,61.069117 C26.860469,61.069117 25.3726919,60.4518133 24.2769028,59.3534151 C23.1811136,58.2550169 22.567362,56.7657761 22.5710395,55.2142547 L22.5710395,18.9169926 C22.5710395,15.7218537 25.1612279,13.1316819 28.3563668,13.1316819 L84.1095176,13.1316819 L84.1095176,13.1316819 Z M84.1095176,12.436332 L28.3007388,12.436332 C24.7215688,12.436332 21.8200782,15.3378226 21.8200782,18.9169926 L21.8200782,55.2142547 C21.8200782,58.8264037 24.7442259,61.7567811 28.3563668,61.7644502 L83.9843546,61.7644502 C87.6019277,61.7644502 90.5345502,58.8318278 90.5345502,55.2142547 L90.5345502,18.9169926 C90.5345502,15.3378226 87.6330596,12.436332 84.0538896,12.436332 L84.1095176,12.436332 Z" id="Shape" fill="#4D4D4D" fill-rule="nonzero"></path>
                            <path d="M29.5523685,48.6224326 C29.4564646,48.6246679 29.3645788,48.5838297 29.3020426,48.5110821 C29.2352202,48.439778 29.2001041,48.3444629 29.2046936,48.2468492 L31.4437201,26.7049109 C31.4643112,26.5268536 31.612242,26.3907573 31.791395,26.38505 L35.1847023,26.38505 C35.3736819,26.3921888 35.5252384,26.5437453 35.5323772,26.7327249 L35.5323772,28.8465884 C35.5323772,29.0155621 35.6693575,29.1525424 35.8383312,29.1525424 C36.0073049,29.1525424 36.1442851,29.0155621 36.1442851,28.8465884 L36.1442851,26.7883529 C36.1442851,26.5963373 36.2999445,26.440678 36.49196,26.440678 L44.6553672,26.440678 C44.8443468,26.4478168 44.9959033,26.5993733 45.0030422,26.7883529 L45.0030422,28.9022164 C45.0030422,29.0711901 45.1400224,29.2081704 45.3089961,29.2081704 C45.4779698,29.2081704 45.61495,29.0711901 45.61495,28.9022164 L45.61495,26.7883529 C45.61495,26.5963373 45.7706094,26.440678 45.9626249,26.440678 L49.3420252,26.440678 C49.5236832,26.4400958 49.6751684,26.5794622 49.6897001,26.7605389 L50.371143,33.7140374 C50.3795202,33.8097009 50.3494992,33.9047675 50.287701,33.9782703 C50.2178056,34.0488448 50.1227941,34.0888496 50.0234681,34.0895263 L42.4163407,34.0895263 L40.8865711,48.3163842 C40.8653547,48.4919479 40.7157325,48.6236154 40.5388961,48.6224326 L29.5523685,48.6224326 Z" id="Path" fill="#CCCCCC"></path>
                            <path d="M49.3420252,26.7883529 L50.065189,33.7418514 L42.1382008,33.7418514 L40.5388961,48.2746632 L29.5523685,48.2746632 L31.791395,26.7883529 L35.1847023,26.7883529 L35.1847023,28.9022164 C35.1847023,29.2632057 35.4773419,29.5558453 35.8383312,29.5558453 C36.1993204,29.5558453 36.49196,29.2632057 36.49196,28.9022164 L36.49196,26.7883529 L44.6553672,26.7883529 L44.6553672,28.9022164 C44.6553672,29.2632057 44.9480068,29.5558453 45.3089961,29.5558453 C45.6699853,29.5558453 45.9626249,29.2632057 45.9626249,28.9022164 L45.9626249,26.7883529 L49.3420252,26.7883529 L49.3420252,26.7883529 Z M49.3420252,26.0929994 L45.9626249,26.0929994 C45.6662425,26.0952043 45.4038329,26.2850325 45.3089961,26.5658409 C45.210699,26.2876012 44.9503928,26.0992946 44.6553672,26.0929994 L36.49196,26.0929994 C36.1955776,26.0952043 35.933168,26.2850325 35.8383312,26.5658409 C35.740034,26.2876012 35.4797278,26.0992946 35.1847023,26.0929994 L31.791395,26.0929994 C31.4353919,26.097515 31.1379027,26.3652553 31.0960452,26.7188179 L28.8709257,48.2051282 C28.8486545,48.4012651 28.90913,48.5978106 29.0378096,48.7475011 C29.1724336,48.8878415 29.3579073,48.9680463 29.5523685,48.9700219 L40.5388961,48.9700219 C40.8973337,48.9718093 41.1984063,48.700844 41.234246,48.3441982 L42.7222947,34.4372012 L50.065189,34.4372012 C50.2614241,34.4440846 50.4503574,34.3623837 50.5797479,34.2146893 C50.7143528,34.0734238 50.7804093,33.8803356 50.7605389,33.6862234 L50.079096,26.7327249 C50.0500325,26.3705714 49.7470621,26.0918387 49.3837462,26.0929994 L49.3420252,26.0929994 Z" id="Shape" fill="#4D4D4D" fill-rule="nonzero"></path>
                            <path d="M40.5388961,48.6223381 C40.4395701,48.6216614 40.3445586,48.5816566 40.2746632,48.5110821 C40.2144404,48.4313519 40.1848317,48.3326561 40.1912212,48.2329422 L41.7209909,33.7418514 C41.7355227,33.5607746 41.8870078,33.4214083 42.0686658,33.4219886 L54.2790091,33.4219886 C54.4553028,33.4284911 54.5987838,33.5659937 54.6127771,33.7418514 L56.1703607,48.3024772 C56.1844501,48.4029234 56.153973,48.504514 56.0869187,48.5806171 C56.0179347,48.6525285 55.9223312,48.6927826 55.8226858,48.6918882 L40.5388961,48.6223381 Z" id="Path" fill="#FFFFFF"></path>
                            <path d="M54.3068231,33.7418514 L55.8504998,48.3163842 L40.5528031,48.3163842 L42.0964798,33.7418514 L54.3068231,33.7418514 L54.3068231,33.7418514 Z M54.3068231,33.0465015 L42.0964798,33.0465015 C41.7404767,33.0510134 41.4429874,33.3187538 41.4011299,33.6723164 L39.8435463,48.2051282 C39.8281664,48.4002768 39.8941249,48.5931047 40.0258031,48.7379507 C40.1574813,48.8827967 40.3431691,48.9667798 40.5388961,48.9700394 L55.8365928,48.9700394 C56.0387395,48.971772 56.2316445,48.8854724 56.3650587,48.7335941 C56.4963075,48.5909057 56.5574411,48.3973157 56.5319426,48.2051282 L54.988266,33.6305954 C54.9529909,33.279214 54.659931,33.0100773 54.3068231,33.0047805 L54.3068231,33.0465015 Z" id="Shape" fill="#4D4D4D" fill-rule="nonzero"></path>
                            <path d="M45.3229031,29.6949153 C45.095513,29.6986435 44.8761477,29.610915 44.714035,29.451417 C44.5519223,29.291919 44.4606387,29.0740091 44.4606693,28.8465884 L44.4606693,24.5076054 C44.4606692,22.3647118 42.7235107,20.6275534 40.5806171,20.6275534 C38.4377236,20.6275534 36.7005651,22.3647118 36.700565,24.5076054 L36.700565,28.8465884 C36.6455648,29.2770366 36.2792324,29.5995394 35.8452847,29.5995394 C35.411337,29.5995394 35.0450045,29.2770366 34.9900043,28.8465884 L34.9900043,24.5076054 C34.9900043,21.4353565 37.4805542,18.9448066 40.5528031,18.9448066 C43.6250521,18.9448066 46.1156039,21.4353565 46.1156039,24.5076054 L46.1156039,28.8465884 C46.1165653,29.294215 45.7695673,29.6655637 45.3229031,29.6949153 Z" id="Path" fill="#F44C81"></path>
                            <path d="M40.5945241,19.2646675 C41.9946509,19.2498112 43.3425482,19.7956252 44.337854,20.7804816 C45.3331598,21.765338 45.89309,23.1073998 45.89309,24.5076054 L45.89309,28.8465884 C45.89309,29.1230908 45.6689405,29.3472404 45.3924381,29.3472404 C45.1135986,29.3473422 44.8854154,29.125326 44.8778792,28.8465884 L44.8778792,24.5076054 C44.8778792,22.1726962 42.9850613,20.2798783 40.6501521,20.2798783 C38.3152429,20.2798783 36.422425,22.1726962 36.422425,24.5076054 L36.422425,28.8465884 C36.3811946,29.0948341 36.1664659,29.2768406 35.9148196,29.2768406 C35.6631734,29.2768406 35.4484446,29.0948341 35.4072143,28.8465884 L35.4072143,24.5076054 C35.4072143,21.6120108 37.7545575,19.2646675 40.6501521,19.2646675 L40.6501521,19.2646675 L40.5945241,19.2646675 Z M40.6501521,18.5693177 L40.6501521,18.5693177 C37.3736988,18.5769641 34.7195108,21.2311521 34.7118644,24.5076054 L34.7118644,28.8465884 C34.778034,29.4611138 35.2967421,29.9269679 35.9148196,29.9269679 C36.5328972,29.9269679 37.0516053,29.4611138 37.1177749,28.8465884 L37.1177749,24.5076054 C37.1177749,22.5567273 38.699274,20.9752282 40.6501521,20.9752282 C42.6010302,20.9752282 44.1825293,22.5567273 44.1825293,24.5076054 L44.1825293,28.8465884 C44.2486989,29.4611138 44.767407,29.9269679 45.3854846,29.9269679 C46.0035621,29.9269679 46.5222702,29.4611138 46.5884398,28.8465884 L46.5884398,24.5076054 C46.5809205,22.9395206 45.9505736,21.4386947 44.8361582,20.3355063 C43.735982,19.218329 42.2320014,18.5916704 40.6640591,18.5971317 L40.6501521,18.5693177 Z" id="Shape" fill="#4D4D4D" fill-rule="nonzero"></path>
                            <path d="M48.2016515,42.8787746 C47.2218274,42.8824458 46.2808665,42.4958015 45.5867177,41.8042623 C44.892569,41.1127232 44.5023833,40.1732252 44.5023903,39.1933942 L44.5023903,36.4119948 C44.46002,36.0803925 44.6131452,35.7541827 44.8953176,35.574923 C45.17749,35.3956632 45.5378512,35.3956632 45.8200236,35.574923 C46.102196,35.7541827 46.2553211,36.0803925 46.2129509,36.4119948 L46.2129509,39.1933942 C46.1504736,39.9359299 46.5112827,40.6504081 47.1459333,41.0408965 C47.780584,41.4313849 48.5809979,41.4313849 49.2156486,41.0408965 C49.8502992,40.6504081 50.2111084,39.9359299 50.148631,39.1933942 L50.148631,36.4119948 C50.148631,35.9357962 50.5346663,35.549761 51.0108648,35.549761 C51.2406872,35.5459615 51.4622142,35.6355831 51.6247454,35.7981142 C51.7872765,35.9606454 51.8768982,36.1821724 51.8730987,36.4119948 L51.8730987,39.1933942 C51.8731131,41.2233404 50.2315832,42.8710882 48.2016515,42.8787746 L48.2016515,42.8787746 Z" id="Path" fill="#FF7799"></path>
                            <path d="M51.0386788,35.8557149 C51.1701659,35.8590575 51.2950563,35.9140093 51.3863538,36.0086919 C51.4844491,36.1033641 51.5396951,36.2339455 51.5393325,36.3702738 L51.5393325,39.1516732 C51.5393325,40.9950225 50.0450008,42.4893523 48.2016515,42.4893523 C46.3583022,42.4893523 44.8639723,40.9950225 44.8639722,39.1516732 L44.8639722,36.3702738 C44.8305221,36.1688732 44.9193061,35.9667454 45.09025,35.8551242 C45.2611939,35.7435029 45.4819613,35.7435029 45.6529051,35.8551242 C45.823849,35.9667454 45.912633,36.1688732 45.879183,36.3702738 L45.879183,39.1516732 C45.8117016,40.0217647 46.2376871,40.8562423 46.9819629,41.3119468 C47.7262386,41.7676512 48.6631573,41.7676512 49.407433,41.3119468 C50.1517088,40.8562423 50.5776943,40.0217647 50.510213,39.1516732 L50.510213,36.3702738 C50.517518,36.0891722 50.7436702,35.8630199 51.0247718,35.8557149 L51.0247718,35.8557149 L51.0386788,35.8557149 Z M51.0247718,35.1603651 L51.0247718,35.1603651 C50.3674445,35.17548 49.8425033,35.7127727 49.8426771,36.3702738 L49.8426771,39.1516732 C49.8996861,39.7663412 49.6039531,40.3603356 49.0791179,40.68532 C48.5542827,41.0103043 47.8907412,41.0103043 47.365906,40.68532 C46.8410708,40.3603356 46.5453378,39.7663412 46.6023468,39.1516732 L46.6023468,36.3702738 C46.6519486,35.9096155 46.4341253,35.4610832 46.041415,35.2152275 C45.6487048,34.9693718 45.1500784,34.9693718 44.7573681,35.2152275 C44.3646579,35.4610832 44.1468345,35.9096155 44.1964363,36.3702738 L44.1964363,39.1516732 C44.1964364,41.3790536 46.002085,43.1847021 48.2294654,43.1847021 C50.4568459,43.1847021 52.2624945,41.3790536 52.2624946,39.1516732 L52.2624946,36.3702738 C52.2700619,36.0421676 52.144015,35.7250638 51.913262,35.4916886 C51.682509,35.2583134 51.3668496,35.1286915 51.0386788,35.1325511 L51.0247718,35.1603651 Z" id="Shape" fill="#4D4D4D" fill-rule="nonzero"></path>
                            <polygon id="Path" fill="#AAAAAA" points="31.791395 26.7327249 29.5523685 48.2746632 30.7622773 48.2746632 33.0013038 26.7327249"></polygon>
                            <polygon id="Path" fill="#E0E0E0" points="42.0964798 33.7140374 40.5388961 48.2746632 41.7348979 48.2746632 43.2924815 33.7140374"></polygon>
                            <path d="M69.3124728,28.6101695 L84.3320296,28.6101695 C84.7404905,28.5566516 85.0459473,28.2085622 85.0459473,27.7966102 C85.0459473,27.3846581 84.7404905,27.0365687 84.3320296,26.9830508 L69.3124728,26.9830508 C68.9040119,27.0365687 68.5985551,27.3846581 68.5985551,27.7966102 C68.5985551,28.2085622 68.9040119,28.5566516 69.3124728,28.6101695 L69.3124728,28.6101695 Z" id="Path" fill="#4D4D4D"></path>
                            <path d="M63.4854411,28.6101695 L65.5993047,28.6101695 C65.8913516,28.6101695 66.1416775,28.2485876 66.1416775,27.7896567 C66.1416775,27.3307258 65.8913516,26.9830508 65.5993047,26.9830508 L63.4854411,26.9830508 C63.1794872,26.9830508 62.9291612,27.3446328 62.9291612,27.7896567 C62.9291612,28.2346806 63.1794872,28.6101695 63.4854411,28.6101695 Z" id="Path" fill="#4D4D4D"></path>
                            <path d="M63.4854411,34.3954802 L72.6362451,34.3954802 C72.942199,34.3954802 73.178618,34.0338983 73.178618,33.5749674 C73.178618,33.1160365 72.942199,32.7683616 72.6362451,32.7683616 L63.4854411,32.7683616 C63.1794872,32.7683616 62.9291612,33.1299435 62.9291612,33.5749674 C62.9291612,34.0199913 63.1794872,34.3954802 63.4854411,34.3954802 Z" id="Path" fill="#4D4D4D"></path>
                            <path d="M84.4154715,32.7683616 L76.2103433,32.7683616 C75.9043894,32.7683616 75.6679704,33.1299435 75.6679704,33.5749674 C75.6679704,34.0199913 75.9043894,34.3954802 76.2103433,34.3954802 L84.4154715,34.3954802 C84.7075185,34.3954802 84.9578444,34.0338983 84.9578444,33.5749674 C84.9578444,33.1160365 84.7075185,32.7683616 84.4154715,32.7683616 Z" id="Path" fill="#4D4D4D"></path>
                            <path d="M84.4154715,38.9291612 L63.5549761,38.9291612 C63.2212082,38.9291612 62.9430682,39.2907432 62.9430682,39.7496741 C62.9009036,40.1382583 63.1694015,40.4921875 63.5549761,40.5562799 L84.4154715,40.5562799 C84.7631465,40.5562799 85.0273794,40.194698 85.0273794,39.7496741 C85.0273794,39.3046502 84.8326814,38.9291612 84.4154715,38.9291612 Z" id="Path" fill="#4D4D4D"></path>
                            <path d="M25.2968275,55.2142547 L25.2968275,18.9169926 C25.2968275,15.7218537 27.8869993,13.1316819 31.0821382,13.1316819 L28.3007388,13.1316819 C25.1055999,13.1316819 22.5154115,15.7218537 22.5154115,18.9169926 L22.5154115,55.2142547 C22.511734,56.7657761 23.1254856,58.2550169 24.2212748,59.3534151 C25.3170639,60.4518133 26.804841,61.0691004 28.3563668,61.0691004 L31.1377662,61.0691004 C29.5862404,61.0691004 28.0984633,60.4518133 27.0026742,59.3534151 C25.906885,58.2550169 25.2931334,56.7657761 25.2968275,55.2142547 Z" id="Path" fill="#E0E0E0"></path>
                            <path d="M34.6006084,75.4628422 C34.4085929,75.4628422 34.2529335,75.3071829 34.2529335,75.1151673 L34.2529335,73.2099087 C34.249238,71.9645219 34.7413775,70.7688763 35.6206973,69.8869473 C36.500017,69.0050183 37.6941992,68.5093383 38.9395915,68.5093438 L42.3328987,68.5093438 L44.0295524,61.4028683 L28.3563668,61.4028683 C24.9362415,61.3951999 22.1677532,58.6204816 22.1677532,55.2003477 L22.1677532,54.6023468 C22.1677532,54.4103312 22.3234125,54.2546719 22.5154281,54.2546719 L89.8948283,54.2546719 C90.0868439,54.2546719 90.2425033,54.4103312 90.2425033,54.6023468 L90.2425033,55.2837897 C90.2425033,56.9288004 89.5890253,58.5064358 88.425827,59.6696341 C87.2626288,60.8328323 85.6849934,61.4863103 84.0399826,61.4863103 L68.366797,61.4863103 L70.0634507,68.5093438 L73.4567579,68.5093438 C76.0451277,68.5093438 78.1434159,70.607632 78.1434159,73.1960017 L78.1434159,75.0456323 C78.1434159,75.2376479 77.9877565,75.3933073 77.795741,75.3933073 L34.6006084,75.4628422 Z" id="Path" fill="#CCCCCC"></path>
                            <path d="M89.8948283,54.6023468 L89.8948283,55.2837897 C89.8948283,58.5173317 87.2735246,61.1386354 84.0399826,61.1386354 L67.9356801,61.1386354 L68.533681,63.6558018 L69.7853107,68.9404607 L73.4567579,68.9404607 C74.6086611,68.9367508 75.7144552,69.3927009 76.528978,70.2072237 C77.3435007,71.0217464 77.7994508,72.1275406 77.795741,73.2794437 L77.795741,75.1290743 L34.6006084,75.1290743 L34.6006084,73.2099087 C34.6006084,70.8135546 36.5432373,68.8709257 38.9395915,68.8709257 L42.6110387,68.8709257 L44.5023903,61.0691004 L28.3563668,61.0691004 C26.804841,61.0691048 25.3170639,60.4518133 24.2212748,59.3534151 C23.1254856,58.2550169 22.511734,56.7657761 22.5154115,55.2142547 L22.5154115,54.6023468 L89.8948283,54.6023468 L89.8948283,54.6023468 Z M89.8948283,53.906997 L22.5154281,53.906997 C22.131397,53.906997 21.8200782,54.2183157 21.8200782,54.6023468 L21.8200782,55.2837897 C21.8200782,58.8959387 24.7442259,61.8263161 28.3563668,61.8339852 L43.6540635,61.8339852 L42.1242938,68.2451108 L38.9395915,68.2451108 C36.162377,68.2527511 33.9128988,70.5022293 33.9052586,73.2794437 L33.9052586,75.1290743 C33.9052586,75.5131054 34.2165773,75.8244242 34.6006084,75.8244242 L77.795741,75.8244242 C78.1797721,75.8244242 78.4910908,75.5131054 78.4910908,75.1290743 L78.4910908,73.2099087 C78.4910908,70.4295234 76.2371432,68.1755758 73.4567579,68.1755758 L70.3415906,68.1755758 L69.2012169,63.4332899 L68.8118209,61.7644502 L84.1095176,61.7644502 C87.7270907,61.7644502 90.6597132,58.8318278 90.6597132,55.2142547 L90.6597132,54.6023468 C90.6597132,54.2183157 90.3483944,53.906997 89.9643633,53.906997 L89.8948283,53.906997 Z" id="Shape" fill="#4D4D4D" fill-rule="nonzero"></path>
                            <polygon id="Path" fill="#AAAAAA" points="47.2559757 61.0691004 44.4745763 61.0691004 42.6110387 68.8709257 45.3924381 68.8709257"></polygon>
                            <path d="M25.2968275,55.2142547 L25.2968275,54.6023468 L22.5154115,54.6023468 L22.5154115,55.2837897 C22.511734,56.8353111 23.1254856,58.3245519 24.2212748,59.4229501 C25.3170639,60.5213483 26.804841,61.1386354 28.3563668,61.1386354 L31.1377662,61.1386354 C29.5740867,61.1387949 28.0756344,60.5119711 26.9778154,59.398469 C25.8799964,58.2849668 25.2744892,56.7777746 25.2968275,55.2142547 Z" id="Path" fill="#AAAAAA"></path>
                            <path d="M41.7209909,68.8709257 L38.9395915,68.8709257 C36.5432373,68.8709257 34.6006084,70.8135546 34.6006084,73.2099087 L34.6006084,75.0595393 L37.3820078,75.0595393 L37.3820078,73.2099087 C37.3820078,70.8135546 39.3246367,68.8709257 41.7209909,68.8709257 Z" id="Path" fill="#AAAAAA"></path>
                        </g>
                    </g>
                </g>
            </g>
        </g>
    </g>
</svg>