<?xml version="1.0" encoding="UTF-8"?>
<svg width="71px" height="80px" viewBox="0 0 71 80" version="1.1" xmlns="http://www.w3.org/2000/svg" xmlns:xlink="http://www.w3.org/1999/xlink">
    <!-- Generator: Sketch 55.2 (78181) - https://sketchapp.com -->
    <title>User rating</title>
    <desc>Created with Sketch.</desc>
    <g id="Desktop" stroke="none" stroke-width="1" fill="none" fill-rule="evenodd">
        <g id="About-Us" transform="translate(-684.000000, -692.000000)">
            <g id="BODY" transform="translate(311.000000, 151.000000)">
                <g id="functionality" transform="translate(65.000000, 458.000000)">
                    <g id="func" transform="translate(240.000000, 55.000000)">
                        <g id="User-rating" transform="translate(68.000000, 28.000000)">
                            <path d="M9.62883501,68.287492 C3.10662948,61.586784 -1.6580133,52.3458485 1.21175713,46.2218408 C4.08152757,40.0978331 14.7230208,36.9809054 23.0851749,27.9184724 C31.4473289,18.8560395 37.6811843,3.86183222 46.4003433,0.909676035 C55.1195023,-2.04248015 66.269041,7.11606951 69.7292427,17.6065222 C73.1894443,28.0969749 68.6994207,39.8918687 66.0768076,50.5608239 C63.4541944,61.229779 60.9688908,68.4934563 55.6824716,73.7661446 C50.3960523,79.0388329 40.5784166,79.9725381 31.6121004,78.3934778 C22.6457842,76.8144175 16.1235786,74.960738 9.62883501,68.287492 Z" id="Path" fill="#EFEFEF"></path>
                            <rect id="Rectangle" fill="#FFFFFF" x="14.2973611" y="17.7026389" width="42.8405921" height="53.8665522" rx="7.06"></rect>
                            <path d="M52.2909247,18.0459129 C54.7782797,18.0459129 56.7946793,20.0623125 56.7946793,22.5496675 L56.7946793,66.7221626 C56.7946793,69.2095176 54.7782797,71.2259172 52.2909247,71.2259172 L19.1443896,71.2259172 C16.6570347,71.2259172 14.6406351,69.2095176 14.6406351,66.7221626 L14.6406351,22.5496675 C14.6406351,20.0623125 16.6570347,18.0459129 19.1443896,18.0459129 L52.2909247,18.0459129 L52.2909247,18.0459129 Z M52.2909247,17.3593649 L19.1443896,17.3593649 C17.7678358,17.3593649 16.4476621,17.9061988 15.4742915,18.8795694 C14.500921,19.8529399 13.9540871,21.1731136 13.9540871,22.5496675 L13.9540871,66.7221626 C13.9540871,68.0987164 14.500921,69.4188902 15.4742915,70.3922607 C16.4476621,71.3656313 17.7678358,71.9124651 19.1443896,71.9124651 L52.2909247,71.9124651 C55.1574496,71.9124651 57.4812272,69.5886875 57.4812272,66.7221626 L57.4812272,22.5496675 C57.4812272,19.6831425 55.1574496,17.3593649 52.2909247,17.3593649 Z" id="Shape" fill="#4D4D4D" fill-rule="nonzero"></path>
                            <path d="M17.3868269,66.7221626 L17.3868269,22.5496675 C17.3868269,20.0623125 19.4032265,18.0459129 21.8905814,18.0459129 L19.1443896,18.0459129 C16.6570347,18.0459129 14.6406351,20.0623125 14.6406351,22.5496675 L14.6406351,66.7221626 C14.6406351,69.2095176 16.6570347,71.2259172 19.1443896,71.2259172 L21.8905814,71.2259172 C19.4032265,71.2259172 17.3868269,69.2095176 17.3868269,66.7221626 L17.3868269,66.7221626 Z" id="Path" fill="#E0E0E0"></path>
                            <path d="M35.7176572,33.8639777 C26.9815812,33.8639777 19.8995924,26.7819889 19.8995924,18.0459129 C19.8995924,9.30983694 26.9815812,2.2278481 35.7176572,2.2278481 C44.4537331,2.2278481 51.5357219,9.30983694 51.5357219,18.0459129 C51.5281511,26.778851 44.4505953,33.8564069 35.7176572,33.8639777 Z" id="Path" fill="#CCCCCC"></path>
                            <path d="M35.7176572,2.57112208 C44.2641481,2.57112208 51.192448,9.49942192 51.192448,18.0459129 C51.192448,26.5924039 44.2641481,33.5207037 35.7176572,33.5207037 C27.1711662,33.5207037 20.2428663,26.5924039 20.2428663,18.0459129 C20.2504369,9.50255971 27.174304,2.57869262 35.7176572,2.57112208 L35.7176572,2.57112208 Z M35.7176572,1.88457413 C26.7919962,1.88457413 19.5563184,9.12025196 19.5563184,18.0459129 C19.5563184,26.9715738 26.7919962,34.2072517 35.7176572,34.2072517 C44.6433181,34.2072517 51.8789959,26.9715738 51.8789959,18.0459129 C51.8714248,9.12338988 44.6401802,1.89214521 35.7176572,1.88457413 Z" id="Shape" fill="#4D4D4D" fill-rule="nonzero"></path>
                            <path d="M28.8247157,51.5357219 L51.0276765,51.5357219 C51.3579774,51.6109983 51.700689,51.4764085 51.8914948,51.1964828 C52.0823006,50.9165571 52.0823006,50.5483646 51.8914948,50.2684389 C51.700689,49.9885132 51.3579774,49.8539234 51.0276765,49.9291997 L28.8247157,49.9291997 C28.4944148,49.8539234 28.1517032,49.9885132 27.9608974,50.2684389 C27.7700916,50.5483646 27.7700916,50.9165571 27.9608974,51.1964828 C28.1517032,51.4764085 28.4944148,51.6109983 28.8247157,51.5357219 Z" id="Path" fill="#4D4D4D"></path>
                            <path d="M20.1879425,51.5357219 L23.3186012,51.5357219 C23.6306537,51.5766081 23.9381465,51.4330674 24.1071905,51.1676006 C24.2762345,50.9021339 24.2762345,50.5627878 24.1071905,50.2973211 C23.9381465,50.0318543 23.6306537,49.8883136 23.3186012,49.9291997 L20.1879425,49.9291997 C19.7846519,49.9820401 19.4830617,50.3257234 19.4830617,50.7324608 C19.4830617,51.1391983 19.7846519,51.4828815 20.1879425,51.5357219 L20.1879425,51.5357219 Z" id="Path" fill="#4D4D4D"></path>
                            <path d="M20.1879425,57.2478009 L33.7266681,57.2478009 C34.0387206,57.288687 34.3462135,57.1451463 34.5152575,56.8796796 C34.6843015,56.6142129 34.6843015,56.2748667 34.5152575,56.0094 C34.3462135,55.7439333 34.0387206,55.6003926 33.7266681,55.6412787 L20.1879425,55.6412787 C19.7846519,55.6941191 19.4830617,56.0378023 19.4830617,56.4445398 C19.4830617,56.8512773 19.7846519,57.1949605 20.1879425,57.2478009 Z" id="Path" fill="#4D4D4D"></path>
                            <path d="M51.1649861,55.6412787 L39.0130873,55.6412787 C38.7010348,55.6003926 38.3935419,55.7439333 38.2244979,56.0094 C38.0554539,56.2748667 38.0554539,56.6142129 38.2244979,56.8796796 C38.3935419,57.1451463 38.7010348,57.288687 39.0130873,57.2478009 L51.1649861,57.2478009 C51.4770386,57.288687 51.7845314,57.1451463 51.9535754,56.8796796 C52.1226194,56.6142129 52.1226194,56.2748667 51.9535754,56.0094 C51.7845314,55.7439333 51.4770386,55.6003926 51.1649861,55.6412787 Z" id="Path" fill="#4D4D4D"></path>
                            <path d="M51.1649861,61.7240935 L20.2840592,61.7240935 C19.9720067,61.6832074 19.6645138,61.8267481 19.4954698,62.0922149 C19.3264258,62.3576816 19.3264258,62.6970277 19.4954698,62.9624944 C19.6645138,63.2279612 19.9720067,63.3715019 20.2840592,63.3306157 L51.1649861,63.3306157 C51.4770386,63.3715019 51.7845314,63.2279612 51.9535754,62.9624944 C52.1226194,62.6970277 52.1226194,62.3576816 51.9535754,62.0922149 C51.7845314,61.8267481 51.4770386,61.6832074 51.1649861,61.7240935 Z" id="Path" fill="#4D4D4D"></path>
                            <path d="M26.037331,45.2881356 L25.9000215,45.2881356 L23.3048702,44.2171208 L20.7097189,45.2881356 L20.5861403,45.2881356 C20.5191039,45.3092176 20.4472123,45.3092176 20.3801759,45.2881356 C20.2809323,45.2215365 20.2277877,45.1046183 20.2428663,44.9860545 L20.4488307,42.2398627 L18.6363441,40.0978331 C18.5519453,40.0103522 18.5252462,39.8821964 18.5676893,39.7682901 C18.6091474,39.6590168 18.7014664,39.5769555 18.8148466,39.5485947 L21.5610384,38.8895087 L23.030251,36.4865909 C23.0974635,36.3945173 23.2046053,36.3400775 23.3186012,36.3400775 C23.4325971,36.3400775 23.5397388,36.3945173 23.6069513,36.4865909 L25.0761639,38.8071229 L27.8223557,39.466209 C27.9395619,39.4870085 28.0351155,39.571945 28.069513,39.6859043 C28.125687,39.7885704 28.125687,39.9127812 28.069513,40.0154473 L26.2432954,42.1574769 L26.4629908,44.9036687 C26.4696403,45.0208079 26.418309,45.1337367 26.3256812,45.2057498 C26.2433299,45.2684661 26.1403851,45.2978789 26.037331,45.2881356 Z" id="Path" fill="#F44C81"></path>
                            <path d="M23.3048702,36.5552457 L24.8564686,39.0680112 L27.726239,39.7545591 L25.8039047,42.0064364 L26.037331,44.9448616 L23.2911392,43.818923 L20.5449474,44.9448616 L20.7646428,42.0064364 L18.8972324,39.7545591 L21.7670028,39.0680112 L23.3048702,36.5552457 L23.3048702,36.5552457 Z M23.3048702,35.8686977 L23.3048702,35.8686977 C23.0714493,35.8690866 22.854217,35.9880471 22.7281699,36.1845098 L21.355074,38.463849 L18.7599228,39.0954731 C18.5238106,39.1455278 18.3325991,39.3182195 18.2588327,39.5480303 C18.1850663,39.777841 18.2400479,40.0295577 18.4029178,40.2076808 L20.1330187,42.2261317 L19.9270543,44.8899378 C19.903129,45.1260825 20.0080246,45.3568526 20.2016735,45.4941 C20.3190016,45.5860752 20.4645546,45.6345928 20.6136022,45.6314096 C20.6996174,45.649565 20.7884753,45.649565 20.8744905,45.6314096 L23.3323321,44.6153186 L25.8039047,45.6314096 C25.8896678,45.6518374 25.9790299,45.6518374 26.064793,45.6314096 C26.2095107,45.6336894 26.3504365,45.5850943 26.4629908,45.4941 C26.655377,45.3546706 26.7639416,45.1272018 26.7513409,44.8899378 L26.5453765,42.2261317 L28.2480154,40.1802188 C28.4009952,39.9969506 28.4477912,39.7473718 28.3715941,39.5211328 C28.3017137,39.291294 28.1123162,39.1176795 27.8772796,39.0680112 L25.2958593,38.436387 L23.9227634,36.1570478 C23.7922923,35.9584091 23.5699811,35.8394985 23.3323321,35.841217 L23.3048702,35.8686977 Z" id="Shape" fill="#4D4D4D" fill-rule="nonzero"></path>
                            <path d="M32.9851963,45.2881356 C32.9176491,45.3055762 32.8467791,45.3055762 32.7792319,45.2881356 C32.6916891,45.212217 32.6415588,45.1019305 32.6419223,44.9860545 L32.8616177,42.2398627 L31.0354001,40.0978331 C30.9792261,39.995167 30.9792261,39.8709561 31.0354001,39.7682901 C31.0697977,39.6543308 31.1653512,39.5693943 31.2825574,39.5485947 L34.0287492,38.8895087 L35.4979618,36.4865909 C35.5651743,36.3945173 35.6723161,36.3400775 35.786312,36.3400775 C35.9003078,36.3400775 36.0074496,36.3945173 36.0746621,36.4865909 L37.434027,38.8071229 L40.1802188,39.466209 C40.2960441,39.4898135 40.3903549,39.5736453 40.4273761,39.6859043 C40.4698192,39.7998106 40.4431201,39.9279664 40.3587213,40.0154473 L38.5462347,42.1574769 L38.7521991,44.9036687 C38.7672778,45.0222326 38.7141332,45.1391507 38.6148895,45.2057498 C38.5522357,45.2248545 38.4853099,45.2248545 38.4226561,45.2057498 L38.2853465,45.2057498 L35.6901952,44.134735 L33.095044,45.2057498 L32.9851963,45.2881356 Z" id="Path" fill="#F44C81"></path>
                            <path d="M35.7176572,36.5552457 L37.2555246,39.0680112 L40.125295,39.7545591 L38.2166917,42.0064364 L38.450118,44.9448616 L35.7039262,43.818923 L32.9577344,44.9448616 L33.1911607,42.0064364 L31.2688264,39.7545591 L34.1385969,39.0680112 L35.6901952,36.5552457 L35.7176572,36.5552457 Z M35.6901952,35.8686977 C35.4531648,35.8694391 35.2319535,35.9877614 35.099764,36.1845098 L33.7266681,38.463849 L31.1315168,39.0954731 C30.8964802,39.1451414 30.7070827,39.3187559 30.6372023,39.5485947 C30.5662517,39.7751721 30.6125687,40.0221964 30.7607809,40.2076808 L32.4908818,42.2261317 L32.2849174,44.8899378 C32.2723167,45.1272018 32.3808813,45.3546706 32.5732675,45.4941 C32.6863798,45.5840826 32.8269318,45.6325488 32.9714654,45.6314096 C33.0572284,45.6518374 33.1465905,45.6518374 33.2323536,45.6314096 L35.7039262,44.6153186 L38.1754988,45.6314096 C38.2612619,45.6518374 38.3506239,45.6518374 38.436387,45.6314096 C38.5809206,45.6325488 38.7214726,45.5840826 38.8345849,45.4941 C39.0282338,45.3568526 39.1331293,45.1260825 39.109204,44.8899378 L38.9032396,42.2261317 L40.6470714,40.1802188 C40.8048109,39.9995832 40.8568634,39.7497313 40.784381,39.5211328 C40.7145007,39.291294 40.5251031,39.1176795 40.2900665,39.0680112 L37.6949153,38.436387 L36.3218194,36.1570478 C36.1864538,35.9638464 35.9672313,35.8465879 35.7313881,35.8412358 L35.6901952,35.8686977 Z" id="Shape" fill="#4D4D4D" fill-rule="nonzero"></path>
                            <path d="M50.849174,45.2881356 L50.7255954,45.2881356 L48.1304441,44.2171208 L45.5352929,45.2881356 L45.3979833,45.2881356 C45.3304361,45.3055762 45.2595661,45.3055762 45.1920189,45.2881356 C45.0927752,45.2215365 45.0396306,45.1046183 45.0547093,44.9860545 L45.2744046,42.2398627 L43.4481871,40.0978331 C43.3693173,40.0075153 43.3432911,39.8825893 43.3795323,39.7682901 C43.4209904,39.6590168 43.5133093,39.5769555 43.6266896,39.5485947 L46.3728814,38.8895087 L47.842094,36.4865909 C47.9126762,36.3906387 48.025064,36.3344448 48.1441751,36.3355343 C48.2589878,36.3365992 48.3662891,36.3928047 48.4325252,36.4865909 L49.8880069,38.8071229 L52.6341987,39.466209 C52.7475789,39.4945698 52.8398978,39.5766311 52.8813559,39.6859043 C52.9237991,39.7998106 52.8970999,39.9279664 52.8127011,40.0154473 L50.9864836,42.1574769 L51.2061789,44.9036687 C51.2212576,45.0222326 51.168113,45.1391507 51.0688693,45.2057498 C51.0064882,45.2562725 50.9293939,45.2851828 50.849174,45.2881356 Z" id="Path" fill="#F44C81"></path>
                            <path d="M48.1304441,36.5552457 L49.6683115,39.0680112 L52.538082,39.7545591 L50.6294787,42.0064364 L50.849174,44.9448616 L48.1029822,43.818923 L45.3567904,44.9448616 L45.6726024,42.0064364 L43.7502682,39.7545591 L46.6200386,39.0680112 L48.171637,36.5552457 L48.1304441,36.5552457 Z M48.171637,35.8686977 C47.933988,35.8669604 47.7116768,35.985871 47.5812057,36.1845098 L46.2081098,38.463849 L43.6129586,39.0954731 C43.3845461,39.1520771 43.2023056,39.3239039 43.132375,39.5485947 C43.0561779,39.7748337 43.1029739,40.0244125 43.2559537,40.2076808 L44.9860545,42.2261317 L44.7800901,44.8899378 C44.7674894,45.1272018 44.8760541,45.3546706 45.0684402,45.4941 C45.1809945,45.5850943 45.3219203,45.6336894 45.4666381,45.6314096 C45.5525129,45.6508626 45.6416514,45.6508626 45.7275263,45.6314096 L48.1990989,44.6153186 L50.6569406,45.6314096 C50.7428154,45.6508626 50.8319539,45.6508626 50.9178288,45.6314096 C51.0668765,45.6345928 51.2124294,45.5860752 51.3297576,45.4941 C51.5234065,45.3568526 51.628302,45.1260825 51.6043767,44.8899378 L51.3984124,42.2261317 L53.0598584,40.1802188 C53.2106063,39.9961736 53.2618789,39.7500653 53.197168,39.5211328 C53.1223823,39.2944234 52.9351982,39.1228379 52.7028535,39.0680112 L50.1077022,38.436387 L48.7346063,36.1570478 C48.6085592,35.9605852 48.3913269,35.8416246 48.157906,35.8412358 L48.171637,35.8686977 Z" id="Shape" fill="#4D4D4D" fill-rule="nonzero"></path>
                            <ellipse id="Oval" fill="#FFFFFF" cx="35.7176572" cy="13.8717014" rx="3.63870414" ry="4.33898305"></ellipse>
                            <path d="M35.7176572,9.87599228 C38.5325038,9.87599228 39.0130873,11.6610169 39.0130873,13.8717014 C39.1888653,15.8796682 37.7223735,17.6577894 35.7176572,17.8674104 C33.7129408,17.6577894 32.246449,15.8796682 32.422227,13.8717014 C32.422227,11.6610169 32.9028106,9.87599228 35.7176572,9.87599228 L35.7176572,9.87599228 Z M35.7176572,9.18944433 C31.735679,9.18944433 31.735679,12.5947222 31.735679,13.8717014 C31.5613263,16.2580864 33.3342472,18.3427968 35.7176572,18.5539584 C38.1010671,18.3427968 39.873988,16.2580864 39.6996353,13.8717014 C39.6996353,12.5947222 39.6996353,9.18944433 35.7176572,9.18944433 L35.7176572,9.18944433 Z" id="Shape" fill="#4D4D4D" fill-rule="nonzero"></path>
                            <path d="M29.4975327,24.3209612 C29.3131831,24.3211087 29.1616327,24.1756203 29.1542587,23.9914182 C29.1395515,23.8933411 29.1538711,23.793104 29.1954516,23.703068 C29.2593329,23.6341712 29.3486619,23.5944694 29.4426089,23.5932203 C29.6461911,23.6213696 29.7949066,23.7998282 29.7858829,24.0051491 C29.7860304,24.1894987 29.640542,24.3410492 29.4563398,24.3484231 L29.4975327,24.3209612 Z" id="Path" fill="#FFFFFF"></path>
                            <path d="M29.4975327,23.2224844 C29.3119814,23.222939 29.1341955,23.2970165 29.0032182,23.4284488 C28.8596624,23.5843729 28.7896946,23.7942764 28.8109848,24.0051491 C28.8257326,24.3735534 29.1288334,24.6645302 29.4975327,24.6642354 L29.4975327,24.6642354 C29.8713297,24.6567577 30.1704245,24.351559 30.1703497,23.9776872 C30.185535,23.7850088 30.1204113,23.5946218 29.9903999,23.4516093 C29.8603886,23.3085967 29.6770512,23.2256767 29.4838018,23.2224844 L29.4975327,23.2224844 Z" id="Shape" fill="#4D4D4D" fill-rule="nonzero"></path>
                            <path d="M41.9240506,24.4308088 C41.7398485,24.4234349 41.5943601,24.2718845 41.5945076,24.0875349 C41.5945076,23.8953014 41.7455482,23.6206823 41.9377816,23.6206823 C42.0324715,23.618382 42.1231943,23.6587032 42.1849389,23.7305299 C42.251927,23.8473264 42.2851997,23.9804172 42.2810556,24.1149968 C42.2667077,24.2937814 42.1171401,24.4313836 41.9377816,24.4308088 L41.9240506,24.4308088 Z" id="Path" fill="#FFFFFF"></path>
                            <path d="M41.9377816,23.2774083 C41.8279339,23.2774083 41.2512336,23.2774083 41.2512336,24.0875349 C41.2582256,24.4584828 41.5533196,24.7595991 41.9240506,24.774083 L41.9240506,24.774083 C42.2927499,24.7743779 42.5958507,24.4834011 42.6105986,24.1149968 C42.6373741,23.8868632 42.5676926,23.6579097 42.4183652,23.4833727 C42.2901664,23.3478568 42.110545,23.2730145 41.9240506,23.2774083 L41.9377816,23.2774083 Z" id="Shape" fill="#4D4D4D" fill-rule="nonzero"></path>
                            <path d="M35.7176572,26.5728384 C30.2252735,26.5728384 29.2229135,24.6230423 29.1954516,24.5406565 C29.1846794,24.4908859 29.1846794,24.4393866 29.1954516,24.389616 L29.1954516,23.703068 C29.2641064,19.8172066 29.8819996,18.5814203 33.8777086,17.8536795 L33.9463634,17.8536795 C34.0472621,17.8545275 34.1426778,17.8997244 34.2072517,17.9772581 C35.0941129,18.73059 36.3961253,18.73059 37.2829865,17.9772581 C37.3506077,17.8959683 37.4519186,17.8503784 37.5576057,17.8536795 L37.5576057,17.8536795 C41.5533147,18.5814203 42.1849389,19.8446685 42.2398627,23.8266466 L42.2398627,24.4033469 C42.2506349,24.4531176 42.2506349,24.5046168 42.2398627,24.5543875 C42.1986698,24.6230423 41.1688479,26.5728384 35.7176572,26.5728384 Z" id="Path" fill="#FFFFFF"></path>
                            <path d="M37.5164128,18.2106844 C41.3610813,18.8972324 41.8691268,19.9957091 41.9240506,23.8403776 C41.9240506,24.0600729 41.9240506,24.1149968 41.9240506,24.1149968 L41.9240506,24.1149968 L41.9240506,24.4170779 C41.9240506,24.4170779 41.0040764,26.2570264 35.7039262,26.2570264 C30.403776,26.2570264 29.4838018,24.4170779 29.4838018,24.4170779 L29.4838018,24.0051491 L29.4838018,24.0051491 C29.4838018,24.0051491 29.4838018,23.9364943 29.4838018,23.703068 C29.5524566,19.9545162 30.087964,18.8835014 33.8914396,18.2106844 C34.923694,19.105471 36.4566965,19.105471 37.4889509,18.2106844 L37.5164128,18.2106844 Z M37.4889509,17.5241365 C37.2853453,17.5175599 37.0910667,17.6095866 36.9671744,17.7712937 C36.6162397,18.0806417 36.1571772,18.2385987 35.6901952,18.2106844 C35.2225884,18.2432556 34.7617778,18.0846971 34.413216,17.7712937 C34.2775933,17.6170254 34.0830924,17.5272558 33.8777086,17.5241365 L33.767861,17.5241365 C29.5936494,18.2106844 28.8933705,19.5837803 28.8247157,23.703068 C28.8197451,23.7762154 28.8197451,23.8496159 28.8247157,23.9227634 L28.8247157,24.4170779 C28.8279562,24.5212504 28.8512673,24.6238189 28.8933705,24.719159 C29.0032182,24.9388543 30.1566188,26.9435743 35.75885,26.9435743 C41.3610813,26.9435743 42.473289,24.9388543 42.6243295,24.719159 C42.6664328,24.6238189 42.6897438,24.5212504 42.6929843,24.4170779 L42.6929843,23.8403776 C42.6929843,19.7210899 41.9377816,18.347994 37.7223772,17.5241365 L37.4889509,17.5241365 Z" id="Shape" fill="#4D4D4D" fill-rule="nonzero"></path>
                            <path d="M22.9890581,18.0459129 C22.9930012,10.034469 29.1109083,3.35064057 37.0907531,2.63977687 C36.6376314,2.63977687 36.1845098,2.63977687 35.7176572,2.63977687 C27.1711663,2.63977687 20.2428666,9.5680768 20.2428666,18.1145677 C20.2428666,26.6610586 27.1711663,33.5893585 35.7176572,33.5893585 C36.1845098,33.5893585 36.6376314,33.5893585 37.0907531,33.5893585 C29.0550261,32.8804397 22.9148626,26.1125088 22.9890581,18.0459129 L22.9890581,18.0459129 Z" id="Path" fill="#AAAAAA"></path>
                        </g>
                    </g>
                </g>
            </g>
        </g>
    </g>
</svg>