<?xml version="1.0" encoding="UTF-8"?>
<svg width="20px" height="20px" viewBox="0 0 20 20" version="1.1" xmlns="http://www.w3.org/2000/svg" xmlns:xlink="http://www.w3.org/1999/xlink">
    <!-- Generator: Sketch 55.1 (78136) - https://sketchapp.com -->
    <title>facebook</title>
    <desc>Created with Sketch.</desc>
    <g id="Desktop" stroke="none" stroke-width="1" fill="none" fill-rule="evenodd">
        <g id="Main" transform="translate(-1099.000000, -2548.000000)" fill="#333333">
            <g id="FOOTER" transform="translate(0.000000, 2524.000000)">
                <g id="social-media" transform="translate(1099.000000, 24.000000)">
                    <path d="M18.1818182,0 L1.81818182,0 C0.815454545,0 0,0.815454545 0,1.81818182 L0,18.1818182 C0,19.1845455 0.815454545,20 1.81818182,20 L8.63636364,20 C8.88727273,20 9.09090909,19.7963636 9.09090909,19.5454545 L9.09090909,13.1818182 C9.09090909,12.9309091 8.88727273,12.7272727 8.63636364,12.7272727 L7.74636364,12.7272727 C7.49545455,12.7272727 7.29181818,12.5236364 7.29181818,12.2727273 L7.29181818,9.54545455 C7.29181818,9.29454545 7.49545455,9.09090909 7.74636364,9.09090909 L8.63636364,9.09090909 C8.88727273,9.09090909 9.09090909,8.88727273 9.09090909,8.63636364 L9.09090909,7.72727273 C9.09090909,5.47181818 10.9263636,3.63636364 13.1818182,3.63636364 L15.9090909,3.63636364 C16.16,3.63636364 16.3636364,3.84 16.3636364,4.09090909 L16.3636364,6.81818182 C16.3636364,7.06909091 16.16,7.27272727 15.9090909,7.27272727 L13.1818182,7.27272727 C12.9309091,7.27272727 12.7272727,7.47636364 12.7272727,7.72727273 L12.7272727,8.63636364 C12.7272727,8.88727273 12.9309091,9.09090909 13.1818182,9.09090909 L15.9090909,9.09090909 C16.0427273,9.09090909 16.17,9.14909091 16.2554545,9.25090909 C16.3427273,9.35363636 16.38,9.48818182 16.3572727,9.62090909 L15.9027273,12.3481818 C15.8663636,12.5672727 15.6781818,12.7272727 15.4545455,12.7272727 L13.1818182,12.7272727 C12.9309091,12.7272727 12.7272727,12.9309091 12.7272727,13.1818182 L12.7272727,19.5454545 C12.7272727,19.7963636 12.9309091,20 13.1818182,20 L18.1818182,20 C19.1845455,20 20,19.1845455 20,18.1818182 L20,1.81818182 C20,0.815454545 19.1845455,0 18.1818182,0" id="facebook"></path>
                </g>
            </g>
        </g>
    </g>
</svg>