<?xml version="1.0" encoding="UTF-8"?>
<svg width="20px" height="20px" viewBox="0 0 20 20" version="1.1" xmlns="http://www.w3.org/2000/svg" xmlns:xlink="http://www.w3.org/1999/xlink">
    <!-- Generator: Sketch 55.1 (78136) - https://sketchapp.com -->
    <title>linkedin</title>
    <desc>Created with Sketch.</desc>
    <g id="Desktop" stroke="none" stroke-width="1" fill="none" fill-rule="evenodd">
        <g id="Main" transform="translate(-1143.000000, -2548.000000)" fill="#333333">
            <g id="FOOTER" transform="translate(0.000000, 2524.000000)">
                <g id="social-media" transform="translate(1099.000000, 24.000000)">
                    <path d="M61.2727273,16.8181818 C61.2727273,17.0690909 61.0690909,17.2727273 60.8181818,17.2727273 L58.0909091,17.2727273 C57.84,17.2727273 57.6363636,17.0690909 57.6363636,16.8181818 L57.6363636,11.8181818 C57.6363636,10.68 57.1263636,10 56.2727273,10 C55.4190909,10 54.9090909,10.68 54.9090909,11.8181818 L54.9090909,16.8181818 C54.9090909,17.0690909 54.7054545,17.2727273 54.4545455,17.2727273 L51.7272727,17.2727273 C51.4763636,17.2727273 51.2727273,17.0690909 51.2727273,16.8181818 L51.2727273,7.72727273 C51.2727273,7.47636364 51.4763636,7.27272727 51.7272727,7.27272727 L54.4545455,7.27272727 C54.7054545,7.27272727 54.9090909,7.47636364 54.9090909,7.72727273 L54.9090909,8.01272727 C55.5,7.55090909 56.1963636,7.27272727 57.1818182,7.27272727 C59.6663636,7.27272727 61.2727273,9.05636364 61.2727273,11.8181818 L61.2727273,16.8181818 Z M48.5454545,6.36363636 C47.5427273,6.36363636 46.7272727,5.54818182 46.7272727,4.54545455 C46.7272727,3.54272727 47.5427273,2.72727273 48.5454545,2.72727273 C49.5481818,2.72727273 50.3636364,3.54272727 50.3636364,4.54545455 C50.3636364,5.54818182 49.5481818,6.36363636 48.5454545,6.36363636 L48.5454545,6.36363636 Z M50.3636364,16.8181818 C50.3636364,17.0690909 50.16,17.2727273 49.9090909,17.2727273 L47.1818182,17.2727273 C46.9309091,17.2727273 46.7272727,17.0690909 46.7272727,16.8181818 L46.7272727,7.72727273 C46.7272727,7.47636364 46.9309091,7.27272727 47.1818182,7.27272727 L49.9090909,7.27272727 C50.16,7.27272727 50.3636364,7.47636364 50.3636364,7.72727273 L50.3636364,16.8181818 Z M62.1818182,0 L45.8181818,0 C44.8154545,0 44,0.815454545 44,1.81818182 L44,18.1818182 C44,19.1845455 44.8154545,20 45.8181818,20 L62.1818182,20 C63.1845455,20 64,19.1845455 64,18.1818182 L64,1.81818182 C64,0.815454545 63.1845455,0 62.1818182,0 L62.1818182,0 Z" id="linkedin"></path>
                </g>
            </g>
        </g>
    </g>
</svg>