<?xml version="1.0" encoding="UTF-8"?>
<svg width="24px" height="20px" viewBox="0 0 24 20" version="1.1" xmlns="http://www.w3.org/2000/svg" xmlns:xlink="http://www.w3.org/1999/xlink">
    <!-- Generator: Sketch 55.1 (78136) - https://sketchapp.com -->
    <title>twitter</title>
    <desc>Created with Sketch.</desc>
    <g id="Desktop" stroke="none" stroke-width="1" fill="none" fill-rule="evenodd">
        <g id="Main" transform="translate(-1280.000000, -2548.000000)" fill="#333333">
            <g id="FOOTER" transform="translate(0.000000, 2524.000000)">
                <g id="social-media" transform="translate(1099.000000, 24.000000)">
                    <path d="M204.865955,2.43 C204.712955,2.265 204.467955,2.223 204.267955,2.328 C204.124955,2.403 203.846955,2.501 203.520955,2.597 C203.911955,2.084 204.228955,1.501 204.364955,0.979 C204.418955,0.776 204.337955,0.561 204.165955,0.441 C203.990955,0.322 203.761955,0.324 203.591955,0.445 C203.297955,0.654 201.938954,1.256 201.061954,1.451 C199.948954,0.45 198.840953,0 197.500953,0 C196.495952,0 195.564952,0.287 194.482952,0.929 C192.595951,2.049 192.268951,4.47 192.408951,5.955 C187.28695,5.467 184.413949,2.487 183.392948,1.19 C183.290948,1.061 183.128948,0.999 182.964948,1.001 C182.799948,1.013 182.650948,1.105 182.567948,1.248 C181.346948,3.341 181.846948,5.495 182.784948,6.944 C182.630948,6.839 182.474948,6.722 182.318948,6.593 C182.168948,6.47 181.961948,6.442 181.786948,6.526 C181.611948,6.608 181.499948,6.784 181.499948,6.978 C181.499948,9.175 182.786948,10.745 184.042949,11.637 C183.919948,11.604 183.787948,11.566 183.648948,11.522 C183.460948,11.465 183.256948,11.52 183.126948,11.667 C182.995948,11.814 182.962948,12.024 183.042948,12.203 C183.845948,14.008 185.442949,15.354 187.23295,15.822 C185.693949,16.759 183.565948,17.24 181.557948,17.003 C181.323948,16.972 181.098948,17.118 181.024948,17.344 C180.950948,17.569 181.045948,17.816 181.251948,17.934 C183.685948,19.324 186.214949,20 188.98295,20 L189.00095,20 C192.781951,19.997 196.332952,18.352 198.998953,15.368 C201.571954,12.489 202.920955,8.802 202.644954,5.445 C203.305955,4.951 204.306955,4.027 204.923955,3.035 C205.043955,2.843 205.019955,2.595 204.865955,2.43 L204.865955,2.43 Z" id="twitter"></path>
                </g>
            </g>
        </g>
    </g>
</svg>