<?xml version="1.0" encoding="UTF-8"?>
<svg width="20px" height="20px" viewBox="0 0 20 20" version="1.1" xmlns="http://www.w3.org/2000/svg" xmlns:xlink="http://www.w3.org/1999/xlink">
    <!-- Generator: Sketch 55.1 (78136) - https://sketchapp.com -->
    <title>youtube</title>
    <desc>Created with Sketch.</desc>
    <g id="Desktop" stroke="none" stroke-width="1" fill="none" fill-rule="evenodd">
        <g id="Main" transform="translate(-1236.000000, -2548.000000)" fill="#333333">
            <g id="FOOTER" transform="translate(0.000000, 2524.000000)">
                <g id="social-media" transform="translate(1099.000000, 24.000000)">
                    <path d="M155.181818,15.9090872 C155.181818,16.1599959 154.978182,16.3636319 154.727273,16.3636319 L152.454545,16.3636319 L152.454545,16.5909043 C152.454545,16.9672674 152.76,17.2727215 153.136364,17.2727215 L153.818182,17.2727215 C154.035455,17.2727215 154.155455,17.1099945 154.197273,17.0409037 C154.325455,16.8245404 154.604545,16.7536314 154.82,16.881813 C155.035455,17.0099946 155.106364,17.2890851 154.978182,17.5045394 C154.727273,17.9290842 154.292727,18.1818111 153.818182,18.1818111 L153.136364,18.1818111 C152.259091,18.1818111 151.545455,17.4681758 151.545455,16.5909043 L151.545455,15.22727 C151.545455,14.3499985 152.259091,13.6363632 153.136364,13.6363632 L153.590909,13.6363632 C154.468182,13.6363632 155.181818,14.3499985 155.181818,15.22727 L155.181818,15.9090872 Z M150.636364,16.5909043 C150.636364,17.4681758 149.922727,18.1818111 149.045455,18.1818111 L148.590909,18.1818111 C148.311818,18.1818111 148.052727,18.1036294 147.824545,17.9763569 C147.742727,18.0972658 147.611818,18.1818111 147.454545,18.1818111 C147.203636,18.1818111 147,17.9781751 147,17.7272663 L147,16.5909043 L147,15.22727 L147,12.2727288 C147,12.0218201 147.203636,11.818184 147.454545,11.818184 C147.705455,11.818184 147.909091,12.0218201 147.909091,12.2727288 L147.909091,13.796363 C148.116364,13.6963631 148.345455,13.6363632 148.590909,13.6363632 L149.045455,13.6363632 C149.922727,13.6363632 150.636364,14.3499985 150.636364,15.22727 L150.636364,16.5909043 Z M146.090909,16.5909043 C146.090909,16.6427225 146.08,16.6918133 146.075455,16.7427223 C146.08,16.7681768 146.090909,16.7909041 146.090909,16.8181767 L146.090909,17.7272663 C146.090909,17.9781751 145.887273,18.1818111 145.636364,18.1818111 C145.479091,18.1818111 145.348182,18.0972658 145.266364,17.9763569 C145.038182,18.1036294 144.779091,18.1818111 144.5,18.1818111 L144.045455,18.1818111 C143.168182,18.1818111 142.454545,17.4681758 142.454545,16.5909043 L142.454545,14.090908 C142.454545,13.8399993 142.658182,13.6363632 142.909091,13.6363632 C143.16,13.6363632 143.363636,13.8399993 143.363636,14.090908 L143.363636,16.5909043 C143.363636,16.9672674 143.669091,17.2727215 144.045455,17.2727215 L144.5,17.2727215 C144.876364,17.2727215 145.181818,16.9672674 145.181818,16.5909043 L145.181818,14.090908 C145.181818,13.8399993 145.385455,13.6363632 145.636364,13.6363632 C145.887273,13.6363632 146.090909,13.8399993 146.090909,14.090908 L146.090909,16.5909043 Z M141.545455,17.7272663 C141.545455,17.9781751 141.341818,18.1818111 141.090909,18.1818111 C140.84,18.1818111 140.636364,17.9781751 140.636364,17.7272663 L140.636364,12.7272736 L139.272727,12.7272736 C139.021818,12.7272736 138.818182,12.5245466 138.818182,12.2727288 C138.818182,12.0218201 139.021818,11.818184 139.272727,11.818184 L142.909091,11.818184 C143.16,11.818184 143.363636,12.0218201 143.363636,12.2727288 C143.363636,12.5245466 143.16,12.7272736 142.909091,12.7272736 L141.545455,12.7272736 L141.545455,17.7272663 Z M154.272727,10.0000049 L139.727273,10.0000049 C138.223636,10.0000049 137,11.2236394 137,12.7272736 L137,17.2727215 C137,18.7763557 138.223636,19.9999903 139.727273,19.9999903 L154.272727,19.9999903 C155.776364,19.9999903 157,18.7763557 157,17.2727215 L157,12.7272736 C157,11.2236394 155.776364,10.0000049 154.272727,10.0000049 L154.272727,10.0000049 Z M149.045455,14.5454528 C149.421818,14.5454528 149.727273,14.8509069 149.727273,15.22727 L149.727273,16.5909043 C149.727273,16.9672674 149.421818,17.2727215 149.045455,17.2727215 L148.590909,17.2727215 C148.214545,17.2727215 147.909091,16.9672674 147.909091,16.5909043 L147.909091,15.22727 C147.909091,14.8509069 148.214545,14.5454528 148.590909,14.5454528 L149.045455,14.5454528 Z M153.590909,14.5454528 C153.967273,14.5454528 154.272727,14.8509069 154.272727,15.22727 L154.272727,15.4545424 L152.454545,15.4545424 L152.454545,15.22727 C152.454545,14.8509069 152.76,14.5454528 153.136364,14.5454528 L153.590909,14.5454528 Z M141.545455,5.08837565 L139.76,0.623836696 C139.666364,0.391109762 139.78,0.126564693 140.012727,0.0329284656 C140.244545,-0.0607077616 140.510909,0.0520193469 140.603636,0.28656446 L142,3.77655938 L143.396364,0.28656446 C143.489091,0.0520193469 143.755455,-0.0607077616 143.987273,0.0329284656 C144.22,0.126564693 144.333636,0.391109762 144.24,0.623836696 L142.454545,5.08837565 L142.454545,8.6365523 C142.454545,8.88837011 142.250909,9.09109709 142,9.09109709 C141.749091,9.09109709 141.545455,8.88837011 141.545455,8.6365523 L141.545455,5.08837565 Z M145.181818,4.54592189 L145.181818,7.27319065 C145.181818,7.77409901 145.59,8.18228023 146.090909,8.18228023 C146.591818,8.18228023 147,7.77409901 147,7.27319065 L147,4.54592189 C147,4.04501353 146.591818,3.63683231 146.090909,3.63683231 C145.59,3.63683231 145.181818,4.04501353 145.181818,4.54592189 Z M144.272727,7.27319065 L144.272727,4.54592189 C144.272727,3.54319608 145.088182,2.72774272 146.090909,2.72774272 C147.093636,2.72774272 147.909091,3.54319608 147.909091,4.54592189 L147.909091,7.27319065 C147.909091,8.27591646 147.093636,9.09136982 146.090909,9.09136982 C145.088182,9.09136982 144.272727,8.27591646 144.272727,7.27319065 Z M150.636364,9.09136982 C149.633636,9.09136982 148.818182,8.27591646 148.818182,7.27319065 L148.818182,3.18228751 C148.818182,2.93137879 149.021818,2.72774272 149.272727,2.72774272 C149.523636,2.72774272 149.727273,2.93137879 149.727273,3.18228751 L149.727273,7.27319065 C149.727273,7.77409901 150.135455,8.18228023 150.636364,8.18228023 C151.137273,8.18228023 151.545455,7.77409901 151.545455,7.27319065 L151.545455,3.18228751 C151.545455,2.93137879 151.749091,2.72774272 152,2.72774272 C152.250909,2.72774272 152.454545,2.93137879 152.454545,3.18228751 L152.454545,7.27319065 L152.454545,8.63682502 C152.454545,8.88773375 152.250909,9.09136982 152,9.09136982 C151.812727,9.09136982 151.653636,8.97864271 151.583636,8.81773385 C151.307273,8.9877336 150.984545,9.09136982 150.636364,9.09136982 Z" id="youtube"></path>
                </g>
            </g>
        </g>
    </g>
</svg>