<?xml version="1.0" encoding="UTF-8"?>
<svg width="32px" height="32px" viewBox="0 0 32 32" version="1.1" xmlns="http://www.w3.org/2000/svg" xmlns:xlink="http://www.w3.org/1999/xlink">
    <!-- Generator: Sketch 55.2 (78181) - https://sketchapp.com -->
    <title>Fill 111</title>
    <desc>Created with Sketch.</desc>
    <g id="Desktop" stroke="none" stroke-width="1" fill="none" fill-rule="evenodd">
        <g id="Sing-Up-/-Step-1" transform="translate(-792.000000, -520.000000)" fill="#3D7EFD">
            <g id="BODY" transform="translate(560.000000, 217.000000)">
                <g id="form">
                    <g id="other-options" transform="translate(56.000000, 264.000000)">
                        <g id="Stacked-Group" transform="translate(0.000000, 39.000000)">
                            <path d="M203.636364,26.9090909 C203.636364,27.3105455 203.310545,27.6363636 202.909091,27.6363636 L198.545455,27.6363636 C198.144,27.6363636 197.818182,27.3105455 197.818182,26.9090909 L197.818182,18.9090909 C197.818182,17.088 197.002182,16 195.636364,16 C194.270545,16 193.454545,17.088 193.454545,18.9090909 L193.454545,26.9090909 C193.454545,27.3105455 193.128727,27.6363636 192.727273,27.6363636 L188.363636,27.6363636 C187.962182,27.6363636 187.636364,27.3105455 187.636364,26.9090909 L187.636364,12.3636364 C187.636364,11.9621818 187.962182,11.6363636 188.363636,11.6363636 L192.727273,11.6363636 C193.128727,11.6363636 193.454545,11.9621818 193.454545,12.3636364 L193.454545,12.8203636 C194.4,12.0814545 195.514182,11.6363636 197.090909,11.6363636 C201.066182,11.6363636 203.636364,14.4901818 203.636364,18.9090909 L203.636364,26.9090909 Z M183.272727,10.1818182 C181.668364,10.1818182 180.363636,8.87709091 180.363636,7.27272727 C180.363636,5.66836364 181.668364,4.36363636 183.272727,4.36363636 C184.877091,4.36363636 186.181818,5.66836364 186.181818,7.27272727 C186.181818,8.87709091 184.877091,10.1818182 183.272727,10.1818182 L183.272727,10.1818182 Z M186.181818,26.9090909 C186.181818,27.3105455 185.856,27.6363636 185.454545,27.6363636 L181.090909,27.6363636 C180.689455,27.6363636 180.363636,27.3105455 180.363636,26.9090909 L180.363636,12.3636364 C180.363636,11.9621818 180.689455,11.6363636 181.090909,11.6363636 L185.454545,11.6363636 C185.856,11.6363636 186.181818,11.9621818 186.181818,12.3636364 L186.181818,26.9090909 Z M205.090909,0 L178.909091,0 C177.304727,0 176,1.30472727 176,2.90909091 L176,29.0909091 C176,30.6952727 177.304727,32 178.909091,32 L205.090909,32 C206.695273,32 208,30.6952727 208,29.0909091 L208,2.90909091 C208,1.30472727 206.695273,0 205.090909,0 L205.090909,0 Z" id="Fill-111"></path>
                        </g>
                    </g>
                </g>
            </g>
        </g>
    </g>
</svg>