<?xml version="1.0" encoding="UTF-8"?>
<svg width="32px" height="32px" viewBox="0 0 32 32" version="1.1" xmlns="http://www.w3.org/2000/svg" xmlns:xlink="http://www.w3.org/1999/xlink">
    <!-- Generator: Sketch 55.2 (78181) - https://sketchapp.com -->
    <title>Fill 418</title>
    <desc>Created with Sketch.</desc>
    <g id="Desktop" stroke="none" stroke-width="1" fill="none" fill-rule="evenodd">
        <g id="Sing-Up-/-Step-1" transform="translate(-616.000000, -520.000000)" fill="#3D7EFD">
            <g id="BODY" transform="translate(560.000000, 217.000000)">
                <g id="form">
                    <g id="other-options" transform="translate(56.000000, 264.000000)">
                        <g id="Stacked-Group" transform="translate(0.000000, 39.000000)">
                            <path d="M31.7373311,13.2213972 C31.9173326,14.2800903 32,15.1627791 32,16.0001333 C32,16.8988225 31.9119993,17.8361792 31.7346645,18.788203 C31.1879932,21.9389485 29.7079809,24.8336875 27.4559621,27.1510788 C27.3252944,27.2870822 27.1532929,27.3550839 26.9786248,27.3550839 C26.8319569,27.3550839 26.6866224,27.3070827 26.565288,27.2110803 L22.3252527,23.8643299 C22.1719181,23.7429936 22.0799173,23.5603223 22.0719173,23.3656508 C22.0652505,23.1709793 22.1439179,22.9816412 22.2865857,22.8509713 C23.3732614,21.8496129 24.1986017,20.6469162 24.7066059,19.33355 L16.6665389,19.33355 C16.2985358,19.33355 15.9998667,19.0348759 15.9998667,18.6668667 L15.9998667,13.3334 C15.9998667,12.9653908 16.2985358,12.6667167 16.6665389,12.6667167 L31.0799923,12.6667167 C31.4053284,12.6667167 31.682664,12.9013892 31.7373311,13.2213972 Z M20.8636405,24.4091436 L25.3370111,27.9398985 C25.5023459,28.0705684 25.59568,28.2705734 25.5918034,28.479912 C25.5863466,28.6879172 25.483679,28.8825887 25.3143443,29.0052585 C22.5876549,30.9639741 19.3676281,32 16.0009333,32 C10.4688872,32 5.4035117,29.1892631 2.44882041,24.4811454 C2.26881891,24.1931382 2.33548613,23.814462 2.60215502,23.6037901 L6.81552346,20.2757069 C6.96885807,20.1543705 7.16885974,20.1090361 7.36086134,20.1463703 C7.55286294,20.185038 7.71819765,20.3077077 7.81286511,20.479712 C9.45554546,23.4744535 12.5942383,25.3331667 16.0009333,25.3331667 C17.4316119,25.3331667 18.8289569,24.9971583 20.1529679,24.3358084 C20.3849699,24.2184721 20.6609722,24.2491396 20.8636405,24.4091436 Z M6.89605747,18.0327175 C6.95072459,18.2820571 6.86005717,18.5420636 6.65738881,18.7007342 L2.18935158,22.2288224 C2.07068392,22.3234914 1.92401603,22.372826 1.7760148,22.372826 C1.71868099,22.372826 1.66134718,22.3648258 1.60401337,22.3501588 C1.40134501,22.2968241 1.2360103,22.1488204 1.15734298,21.9541489 C0.389336578,20.0447678 0,18.0420511 0,16.0006667 C0,13.9259481 0.400003333,11.8938973 1.18934324,9.96051568 C1.26801057,9.76584415 1.43334528,9.62050718 1.63734698,9.56717251 C1.83868199,9.51250448 2.05468379,9.55917231 2.21868516,9.68850888 L6.68138901,13.2112636 C6.88405737,13.3712676 6.97739148,13.6326075 6.91872432,13.8859471 C6.75205627,14.601965 6.66672222,15.3139828 6.66672222,16.0006667 C6.66672222,16.66735 6.7440562,17.3513671 6.89605747,18.0327175 Z M6.85832382,11.6536247 L2.64495537,8.32687484 C2.37695314,8.11486954 2.31161926,7.73486004 2.4956208,7.44551947 C5.45431212,2.7840696 10.5036875,0 15.9997333,0 C19.7130976,0 23.3424612,1.3080327 26.2238185,3.6840921 C26.3691531,3.8040951 26.4571538,3.9800995 26.4651539,4.1681042 C26.4744873,4.35477554 26.40382,4.53878014 26.2718189,4.6721168 L22.4584538,8.48421211 C22.2224519,8.72155137 21.8491154,8.74555197 21.5837799,8.54421361 C19.9677664,7.31484954 18.0370836,6.66683334 15.9997333,6.66683334 C12.6290386,6.66683334 9.50634589,8.50154587 7.85299877,11.4562864 C7.75833132,11.625624 7.59299661,11.7442936 7.40099501,11.7842946 C7.35832799,11.7922948 7.31432762,11.7962949 7.2716606,11.7962949 C7.12232602,11.7962949 6.97699147,11.7469603 6.85832382,11.6536247 Z" id="Fill-418"></path>
                        </g>
                    </g>
                </g>
            </g>
        </g>
    </g>
</svg>