<?xml version="1.0" encoding="UTF-8"?>
<svg width="32px" height="32px" viewBox="0 0 32 32" version="1.1" xmlns="http://www.w3.org/2000/svg" xmlns:xlink="http://www.w3.org/1999/xlink">
    <!-- Generator: Sketch 55.2 (78181) - https://sketchapp.com -->
    <title>Fill 41</title>
    <desc>Created with Sketch.</desc>
    <g id="Desktop" stroke="none" stroke-width="1" fill="none" fill-rule="evenodd">
        <g id="Sing-Up-/-Step-1" transform="translate(-704.000000, -520.000000)" fill="#3D7EFD">
            <g id="BODY" transform="translate(560.000000, 217.000000)">
                <g id="form">
                    <g id="other-options" transform="translate(56.000000, 264.000000)">
                        <g id="Stacked-Group" transform="translate(0.000000, 39.000000)">
                            <path d="M117.090909,0 L90.9090909,0 C89.3047273,0 88,1.30472727 88,2.90909091 L88,29.0909091 C88,30.6952727 89.3047273,32 90.9090909,32 L101.818182,32 C102.219636,32 102.545455,31.6741818 102.545455,31.2727273 L102.545455,21.0909091 C102.545455,20.6894545 102.219636,20.3636364 101.818182,20.3636364 L100.394182,20.3636364 C99.9927273,20.3636364 99.6669091,20.0378182 99.6669091,19.6363636 L99.6669091,15.2727273 C99.6669091,14.8712727 99.9927273,14.5454545 100.394182,14.5454545 L101.818182,14.5454545 C102.219636,14.5454545 102.545455,14.2196364 102.545455,13.8181818 L102.545455,12.3636364 C102.545455,8.75490909 105.482182,5.81818182 109.090909,5.81818182 L113.454545,5.81818182 C113.856,5.81818182 114.181818,6.144 114.181818,6.54545455 L114.181818,10.9090909 C114.181818,11.3105455 113.856,11.6363636 113.454545,11.6363636 L109.090909,11.6363636 C108.689455,11.6363636 108.363636,11.9621818 108.363636,12.3636364 L108.363636,13.8181818 C108.363636,14.2196364 108.689455,14.5454545 109.090909,14.5454545 L113.454545,14.5454545 C113.668364,14.5454545 113.872,14.6385455 114.008727,14.8014545 C114.148364,14.9658182 114.208,15.1810909 114.171636,15.3934545 L113.444364,19.7570909 C113.386182,20.1076364 113.085091,20.3636364 112.727273,20.3636364 L109.090909,20.3636364 C108.689455,20.3636364 108.363636,20.6894545 108.363636,21.0909091 L108.363636,31.2727273 C108.363636,31.6741818 108.689455,32 109.090909,32 L117.090909,32 C118.695273,32 120,30.6952727 120,29.0909091 L120,2.90909091 C120,1.30472727 118.695273,0 117.090909,0" id="Fill-41"></path>
                        </g>
                    </g>
                </g>
            </g>
        </g>
    </g>
</svg>