<svg xmlns="http://www.w3.org/2000/svg" width="263" height="99" viewBox="0 0 263 99">
  <path fill="#111" d="M310.485417,128.170833 L319.8375,128.170833 L319.8375,91.1125 L310.485417,91.1125 L310.485417,128.170833 Z M356.145833,98.0583333 C354.964605,96.3455132 353.447843,94.8904144 351.6875,93.78125 C348.864583,92.0020833 345.0125,91.1145833 340.135417,91.1145833 L327.814583,91.1145833 L327.814583,128.170833 L342.227083,128.170833 C347.435417,128.170833 351.614583,126.46875 354.76875,123.060417 C357.922917,119.654167 359.497917,115.133333 359.497917,109.502083 C359.497917,105.022917 358.379167,101.208333 356.14375,98.0583333 L356.145833,98.0583333 Z M341.18125,119.78125 L337.166667,119.78125 L337.166667,99.5020833 L341.2375,99.5020833 C344.097917,99.5020833 346.295833,100.397917 347.8375,102.183333 C349.379167,103.96875 350.15,106.502083 350.15,109.78125 C350.15,116.447917 347.160417,119.78125 341.18125,119.78125 L341.18125,119.78125 Z M135.827083,60 L105.520833,67.9375 L97.16875,98.4145833 L107.614583,109.139583 L97,119.6875 L104.860417,150.297917 L135.035417,158.729167 L145.652083,148.179167 L156.097917,158.902083 L186.404167,150.964583 L194.754167,120.485417 L184.310417,109.764583 L194.925,99.2166667 L187.064583,68.6041667 L156.885417,60.1729167 L146.272917,70.7208333 L135.827083,60 Z M117.229167,73.8 L133.19375,69.6166667 L140.175,76.7833333 L129.99375,86.9 L117.229167,73.8 Z M152.275,76.8791667 L159.36875,69.83125 L175.264583,74.2729167 L162.291667,87.1625 L152.275,76.8791667 Z M106.733333,95.9125 L111.13125,79.8604167 L123.891667,92.9604167 L113.7125,103.077083 L106.733333,95.9104167 L106.733333,95.9125 Z M168.289583,93.3229167 L181.2625,80.4291667 L185.4,96.5541667 L178.308333,103.604167 L168.289583,93.3229167 L168.289583,93.3229167 Z M135.99375,93.0583333 L146.175,82.9416667 L156.189583,93.225 L146.010417,103.341667 L135.99375,93.0583333 L135.99375,93.0583333 Z M119.714583,109.235417 L129.89375,99.11875 L139.914583,109.402083 L129.73125,119.51875 L119.714583,109.235417 L119.714583,109.235417 Z M152.0125,109.5 L162.191667,99.3833333 L172.208333,109.666667 L162.027083,119.783333 L152.0125,109.5 Z M106.520833,122.347917 L113.616667,115.295833 L123.63125,125.58125 L110.6625,138.46875 L106.520833,122.347917 L106.520833,122.347917 Z M135.73125,125.677083 L145.9125,115.560417 L155.929167,125.84375 L145.75,135.960417 L135.73125,125.677083 Z M168.027083,125.94375 L178.208333,115.827083 L185.189583,122.991667 L180.79375,139.04375 L168.027083,125.94375 L168.027083,125.94375 Z M116.660417,144.63125 L129.63125,131.7375 L139.652083,142.020833 L132.55625,149.072917 L116.660417,144.629167 L116.660417,144.63125 Z M151.75,142.11875 L161.929167,132.002083 L174.691667,145.104167 L158.729167,149.285417 L151.75,142.11875 L151.75,142.11875 Z M235.016667,93.8916667 C232.814583,92.0395833 229.05625,91.1145833 223.739583,91.1145833 L211.747917,91.1145833 L211.747917,128.172917 L220.714583,128.172917 L220.714583,116.558333 L224.73125,116.558333 C229.60625,116.558333 233.18125,115.485417 235.45625,113.3375 C238.01875,110.93125 239.308333,107.727083 239.308333,103.727083 C239.308333,99.5791667 237.877083,96.3 235.016667,93.8916667 L235.016667,93.8916667 Z M224.508333,108.172917 L220.714583,108.172917 L220.714583,99.5 L224.122917,99.5 C228.26875,99.5 230.341667,100.954167 230.341667,103.8625 C230.341667,106.733333 228.395833,108.170833 224.508333,108.170833 L224.508333,108.172917 Z M254.652083,91.1125 L245.302083,91.1125 L245.302083,128.170833 L265.489583,128.170833 L265.489583,119.783333 L254.652083,119.783333 L254.652083,91.1125 Z M283.808333,91.1125 L269.120833,128.170833 L279.1875,128.170833 L281.1125,122.783333 L293.875,122.783333 L295.635417,128.170833 L305.814583,128.170833 L291.23125,91.1125 L283.808333,91.1125 L283.808333,91.1125 Z M283.697917,115.28125 L287.55,102.614583 L291.341667,115.28125 L283.695833,115.28125 L283.697917,115.28125 Z" transform="translate(-97 -60)"/>
</svg>
