<svg xmlns="http://www.w3.org/2000/svg" width="153" height="64" viewBox="0 0 153 64">
  <path fill="#aaa" fill-rule="evenodd" d="M304.615385,109.13247 C304.615385,98.3179487 299.521358,89.7846154 289.785195,89.7846154 C280.007951,89.7846154 274.092308,98.3179487 274.092308,109.047982 C274.092308,121.763493 281.076053,128.184615 291.099783,128.184615 C295.988405,128.184615 299.685682,127.044021 302.47918,125.438741 L302.47918,116.989896 C299.685682,118.4262 296.481375,119.313328 292.41437,119.313328 C288.429527,119.313328 284.896573,117.877025 284.444684,112.892206 L304.533223,112.892206 C304.533223,112.343031 304.615385,110.146332 304.615385,109.13247 L304.615385,109.13247 Z M284.321441,105.119269 C284.321441,100.345671 287.15602,98.3601929 289.744114,98.3601929 C292.250047,98.3601929 294.920302,100.345671 294.920302,105.119269 L284.321441,105.119269 Z M257.297582,89.7846154 C264.905974,89.7846154 272.0796,96.4969934 272.123077,108.817181 C272.123077,122.28442 265.036404,128.40203 257.254106,128.40203 C253.428172,128.40203 251.123916,126.830144 249.558761,125.725576 L249.515285,137.74838 L238.646154,140 L238.646154,90.4643499 L248.210989,90.4643499 L248.776184,93.098321 C250.297862,91.738852 253.036883,89.7846154 257.297582,89.7846154 Z M254.688991,119.055681 C258.688831,119.055681 261.384376,114.807341 261.384376,109.114565 C261.384376,103.549239 258.645355,99.2159313 254.688991,99.2159313 C252.210829,99.2159313 250.645674,100.065599 249.515285,101.297618 L249.558761,117.058961 C250.602198,118.16353 252.123876,119.055681 254.688991,119.055681 Z M234.707692,85.3327746 L224.861538,87.8153846 L224.861538,78.4366357 L234.707692,76 L234.707692,85.3327746 Z M224.861538,90.7692308 L234.707692,90.7692308 L234.707692,128.184615 L224.861538,128.184615 L224.861538,90.7692308 Z M212.079441,94.3333949 C214.587972,89.7691854 219.562517,90.6989318 220.923077,91.2060662 L220.923077,100.926142 C219.605035,100.461269 215.353287,99.869612 212.844755,103.123724 L212.844755,128.184615 L202.215385,128.184615 L202.215385,91.2060662 L211.399161,91.2060662 L212.079441,94.3333949 Z M191.11464,80.9230769 L191.071535,90.1624948 L199.261538,90.1624948 L199.261538,99.2316008 L191.071535,99.2316008 L191.071535,114.346778 C191.071535,120.648316 197.882169,118.68973 199.261538,118.136216 L199.261538,126.779543 C197.839064,127.545946 195.252747,128.184615 191.718114,128.184615 C185.338532,128.184615 180.553846,123.543617 180.553846,117.242079 L180.596951,83.137131 L191.11464,80.9230769 Z M162.591981,101.22022 C162.591981,105.946374 178.54275,103.70989 178.584615,116.284835 C178.584615,123.838242 172.597844,128.184615 163.889812,128.184615 C160.289376,128.184615 156.354016,127.467253 152.460521,125.779341 L152.460521,115.736264 C155.977226,117.677363 160.414973,119.112088 163.889812,119.112088 C166.234282,119.112088 167.908904,118.479121 167.908904,116.538022 C167.908904,111.516484 152,113.373187 152,101.726593 C152,94.2575824 157.651847,89.7846154 166.150551,89.7846154 C169.625391,89.7846154 173.058365,90.3331868 176.533204,91.7257143 L176.533204,101.642198 C173.351423,99.9120879 169.332332,98.9415385 166.150551,98.9415385 C163.931678,98.9415385 162.591981,99.5745055 162.591981,101.22022 Z" transform="translate(-152 -76)"/>
</svg>
