<?xml version="1.0" encoding="UTF-8"?>
<svg width="87px" height="24px" viewBox="0 0 87 24" version="1.1" xmlns="http://www.w3.org/2000/svg" xmlns:xlink="http://www.w3.org/1999/xlink">
    <!-- Generator: Sketch 55.1 (78136) - https://sketchapp.com -->
    <title>stripe</title>
    <desc>Created with Sketch.</desc>
    <g id="Desktop" stroke="none" stroke-width="1" fill="none" fill-rule="evenodd">
        <g id="Main" transform="translate(-1217.000000, -2608.000000)" fill="#333333">
            <g id="FOOTER" transform="translate(0.000000, 2524.000000)">
                <g id="supported" transform="translate(775.000000, 80.000000)">
                    <path d="M445.50329,4 L525.496562,4 C527.431469,4 529,5.57233159 529,7.51211523 L529,24.4878848 C529,26.4276663 527.431472,28 525.496562,28 L445.50329,28 C443.568383,28 442,26.4276684 442,24.4878848 L442,7.51211523 C442,5.57233371 443.568381,4 445.50329,4 Z M483.691733,19.5853825 L485.647627,14.6208027 L484.745793,14.6208027 L483.912388,16.885663 L483.085486,14.6208027 L482.183652,14.6208027 L483.499012,17.948746 L482.838081,19.5853825 L483.691735,19.5853825 Z M480.413238,18.1560393 C481.336354,18.1560393 481.969795,17.4101737 481.969795,16.3470864 C481.969795,15.2841492 481.336354,14.5382836 480.413238,14.5382836 C480.11706,14.5382836 479.814082,14.6489634 479.538449,14.8562469 L479.538449,13.1089319 L478.657307,13.1089319 L478.657307,18.0735011 L479.538449,18.0735011 L479.538449,17.831696 C479.814084,18.0457957 480.11706,18.1560393 480.413238,18.1560393 Z M480.227462,15.2976108 C480.723158,15.2976108 481.067665,15.7261069 481.067665,16.3470674 C481.067665,16.9687697 480.72316,17.3966719 480.227462,17.3966719 C479.986264,17.3966719 479.745213,17.2931054 479.53845,17.0858219 L479.53845,15.6084651 C479.745212,15.4011826 479.986264,15.297615 480.227462,15.297615 Z M475.089276,17.8316769 L475.089276,18.0734821 L475.977956,18.0734821 L475.977956,13.1089129 L475.089276,13.1089129 L475.089276,14.8562279 C474.820734,14.6489442 474.517758,14.5382645 474.214487,14.5382645 C473.298464,14.5382645 472.658372,15.2841281 472.658372,16.3470674 C472.658372,17.4101546 473.298464,18.1560203 474.214487,18.1560203 C474.51776,18.1560203 474.820736,18.0457855 475.089276,17.8316854 Z M475.089276,15.6084608 L475.089276,17.0858176 C474.889607,17.2931001 474.648407,17.3966677 474.40721,17.3966677 C473.904418,17.3966677 473.560651,16.9687654 473.560651,16.3470632 C473.560651,15.7261005 473.904418,15.2976065 474.40721,15.2976065 C474.648409,15.2976065 474.889607,15.4011731 475.089276,15.6084566 Z M469.84113,16.5890163 L472.175533,16.5890163 C472.189721,16.471224 472.189721,16.3611372 472.189721,16.2646814 C472.189721,15.2496014 471.576379,14.5382582 470.674545,14.5382582 C469.690096,14.5382582 468.973447,15.2770127 468.973447,16.3196519 C468.973447,17.3966656 469.703545,18.1560139 470.743417,18.1560139 C471.129305,18.1560139 471.521694,18.0663741 471.914086,17.8867975 L471.914086,17.1477493 C471.55613,17.3550322 471.20453,17.4728238 470.888105,17.4728238 C470.309494,17.4728238 469.896117,17.1132247 469.841138,16.5890163 Z M470.640107,15.2221901 C471.032499,15.2221901 471.314931,15.5462291 471.342273,16.015765 L469.841138,16.015765 C469.882667,15.5394117 470.212985,15.2221901 470.640107,15.2221901 Z M467.52034,15.7670045 C467.747351,15.4771933 468.05742,15.3186562 468.346504,15.3186562 C468.449811,15.3186562 468.560064,15.3321394 468.656573,15.3601426 L468.656573,14.5727912 C468.560065,14.5453807 468.463851,14.5382688 468.366751,14.5382688 C468.070869,14.5382688 467.767893,14.6899914 467.52034,14.966171 L467.52034,14.6207964 L466.638606,14.6207964 L466.638606,18.0734863 L467.52034,18.0734863 L467.52034,15.7669945 Z M463.587269,16.5890163 L465.922114,16.5890163 C465.935564,16.471224 465.935564,16.3611372 465.935564,16.2646814 C465.935564,15.2496014 465.323109,14.5382582 464.420388,14.5382582 C463.435938,14.5382582 462.719584,15.2770127 462.719584,16.3196519 C462.719584,17.3966656 463.449387,18.1560139 464.489259,18.1560139 C464.875147,18.1560139 465.267539,18.0663741 465.66052,17.8867975 L465.66052,17.1477493 C465.301975,17.3550322 464.951114,17.4728238 464.634245,17.4728238 C464.055339,17.4728238 463.6427,17.1132247 463.587278,16.5890163 Z M464.385952,15.2221901 C464.778936,15.2221901 465.060924,15.5462291 465.089005,16.015765 L463.587278,16.015765 C463.628512,15.5394117 463.959125,15.2221901 464.385952,15.2221901 Z M460.508306,18.0734842 L461.300034,18.0734842 L462.477651,14.6207943 L461.596657,14.6207943 L460.900699,16.9687697 L460.205332,14.6207943 L459.406363,14.6207943 L458.710996,16.9687697 L458.015038,14.6207943 L457.134044,14.6207943 L458.318162,18.0734842 L459.11048,18.0734842 L459.805848,15.7261005 L460.508308,18.0734842 Z M455.122584,18.1560125 C456.162308,18.1560125 456.892111,17.4037753 456.892111,16.3470596 C456.892111,15.2841224 456.162308,14.5382567 455.122584,14.5382567 C454.08271,14.5382567 453.345813,15.2841203 453.345813,16.3470596 C453.345813,17.4037774 454.082712,18.1560125 455.122584,18.1560125 Z M455.122584,15.2770133 C455.632321,15.2770133 455.990277,15.7120268 455.990277,16.3470638 C455.990277,16.9822488 455.632321,17.4172622 455.122584,17.4172622 C454.605751,17.4172622 454.247795,16.9822488 454.247795,16.3470638 C454.247795,15.7120268 454.605751,15.2770133 455.122584,15.2770133 Z M451.251875,16.3681099 C452.215932,16.3681099 452.904203,15.7464076 452.904203,14.8491174 C452.904203,13.9513833 452.215929,13.3233095 451.251875,13.3233095 L449.578561,13.3233095 L449.578561,18.073487 L450.459408,18.073487 L450.459408,16.3681036 L451.251875,16.3681036 Z M451.127433,14.0413032 C451.637318,14.0413032 451.995274,14.365636 451.995274,14.8491005 C451.995274,15.3255996 451.63732,15.6499345 451.127433,15.6499345 L450.459408,15.6499345 L450.459408,14.0413032 L451.127433,14.0413032 Z M521.892279,16.8009122 C521.902181,16.6837142 521.921394,16.2294383 521.921394,16.0199324 C521.921394,13.7995185 520.84931,12.0464258 518.795134,12.0464258 C516.737564,12.0464258 515.485903,13.8002539 515.485903,16.0082249 C515.485903,18.6230477 516.961767,19.9454254 519.067968,19.9454254 C520.102071,19.9454254 520.877393,19.7095458 521.465462,19.3834337 L521.465462,17.6367104 C520.875614,17.9352644 520.199606,18.1161745 519.340781,18.1161745 C518.498213,18.1161745 517.755256,17.8170277 517.659042,16.8009101 L521.892279,16.8009101 Z M518.781236,13.8141973 C519.312701,13.8141973 519.875498,14.2246165 519.875498,15.2004339 L517.639685,15.2004339 C517.639685,14.2234309 518.240611,13.8141973 518.781239,13.8141973 Z M512.055902,19.9454211 L512.05589,19.9454317 C513.603432,19.9454317 515.018551,18.6974371 515.018551,15.9420012 C515.018551,13.4180005 513.58821,12.0464322 512.069339,12.0464322 C511.221598,12.0464322 510.674467,12.4463293 510.375039,12.7268074 L510.262864,12.1911894 L508.358107,12.1911894 L508.359289,22.3113256 L510.521513,21.8500864 L510.526243,19.3969122 C510.836904,19.6252346 511.299202,19.9454211 512.055902,19.9454211 Z M511.552517,13.9670907 C512.343951,13.9670907 512.887977,14.8554904 512.887977,15.9899936 C512.887977,17.15739 512.352079,18.0300839 511.552517,18.0300839 C511.045293,18.0300839 510.742168,17.846212 510.532598,17.6186292 L510.51974,14.3966244 C510.745123,14.1491882 511.055785,13.9670907 511.552518,13.9670907 Z M505.303961,12.191181 L505.303961,19.7902856 L507.474744,19.7902856 L507.474744,12.191181 L505.303961,12.191181 Z M505.303961,9.76482418 L505.303961,11.5300682 L507.474744,11.0676435 L507.474744,9.30180773 L505.303961,9.76482418 Z M503.061044,14.6385859 L503.061055,14.6385986 C503.571975,13.9653345 504.435087,14.095127 504.709983,14.1843227 L504.709983,12.1916459 C504.422229,12.0880785 503.41088,11.8988706 502.90528,12.8321648 L502.769163,12.1912021 L500.899579,12.1912021 L500.899579,19.7903068 L503.061044,19.7903068 L503.061044,14.6385859 Z M498.496904,17.1239094 L498.496904,14.0395422 L500.139329,14.0395422 L500.139329,12.1911788 L498.496904,12.1911788 L498.495131,10.3085889 L496.383603,10.7581226 L496.37444,17.7139041 C496.37444,18.9976025 497.337166,19.9454169 498.620751,19.9454169 C499.327794,19.9454169 499.85039,19.8166608 500.138882,19.6579756 L500.138882,17.8931775 C499.861474,18.004154 498.496899,18.4018301 498.496899,17.1239031 Z M495.872841,17.4938784 C495.872841,14.9088273 492.566987,15.3725855 492.566987,14.3973598 C492.566987,14.0583565 492.848383,13.9272301 493.30137,13.9272301 C493.9595,13.9272301 494.794235,14.1291789 495.452359,14.4852213 L495.452359,12.4433538 C494.735997,12.1570991 494.019495,12.0464195 493.303141,12.0464195 C491.549135,12.0464195 490.379499,12.9648953 490.379499,14.4997417 C490.379499,16.9001749 493.667461,16.5103517 493.667461,17.5454359 C493.667461,17.945779 493.320148,18.0757201 492.837751,18.0757201 C492.121397,18.0757201 491.196508,17.7789465 490.470696,17.3831956 L490.470696,19.4530661 C491.274695,19.800217 492.089773,19.945419 492.835537,19.945419 C494.633891,19.945419 495.872841,19.0544982 495.872841,17.493872 Z" id="stripe"></path>
                </g>
            </g>
        </g>
    </g>
</svg>