<?xml version="1.0" encoding="UTF-8"?>
<svg width="118px" height="24px" viewBox="0 0 118 24" version="1.1" xmlns="http://www.w3.org/2000/svg" xmlns:xlink="http://www.w3.org/1999/xlink">
    <!-- Generator: Sketch 55.1 (78136) - https://sketchapp.com -->
    <title>trace alliance</title>
    <desc>Created with Sketch.</desc>
    <g id="Desktop" stroke="none" stroke-width="1" fill="none" fill-rule="evenodd">
        <g id="Main" transform="translate(-1015.000000, -2608.000000)" fill="#333333" fill-rule="nonzero">
            <g id="FOOTER" transform="translate(0.000000, 2524.000000)">
                <g id="supported" transform="translate(775.000000, 80.000000)">
                    <path d="M252.656556,17.507285 C251.022882,20.4176287 249.437042,22.1281528 249.437042,22.1281528 L244.096542,18.1729394 C249.144359,11.6009851 249.144359,4 249.144359,4 L256.167441,4 L256.172747,4 C256.172747,4 256.320808,13.226927 261.909368,18.9351546 L257.504342,23.8767726 C257.504342,23.8767726 254.943595,21.570372 252.656556,17.507285 Z M242.267728,20.1412811 C242.577164,19.8921898 242.867506,19.6138754 243.134367,19.3072902 L248.226441,23.7656666 L248.220077,23.7718188 C247.697256,24.3696088 247.123374,24.920598 246.504942,25.4186343 L246.506918,25.416437 L242.267728,20.1412811 Z M240,21.5329995 C240.382222,21.3599319 240.747399,21.1540525 241.091728,20.9185839 L245.113362,26.7679462 L245.113581,26.767873 L245.113362,26.7680195 L245.117824,26.7744647 L245.038307,26.8193612 C244.386153,27.2626866 243.698519,27.6512281 242.982282,27.9808842 L242.948486,28 L240,21.5329995 Z M262.955923,19.746734 C263.288401,19.968653 263.68401,20.169845 264.053284,20.3326589 L261.334643,26.1810691 L261.301944,26.1630519 C260.609994,25.8528047 259.945696,25.4868213 259.315926,25.0689835 L259.239116,25.0266505 L259.243432,25.0204982 L259.537432,25.2205184 L259.243432,25.0204982 L262.955923,19.746734 Z M270.741623,20.3170732 C269.636115,20.3170732 269.083361,19.685268 269.083361,18.5757565 L269.083361,13.7062338 L267.855019,13.7062338 L267.855019,12.6891816 L269.083361,12.6891816 L269.083361,10.6550772 L270.250286,10.6550772 L270.250286,12.6891816 L271.755006,12.6891816 L271.755006,13.7062338 L270.250286,13.7062338 L270.250286,18.3291984 C270.250286,18.8839541 270.495955,19.2846111 270.987292,19.2846111 C271.325086,19.2846111 271.616817,19.1305123 271.77036,18.9610036 L272.108154,19.8393669 C271.816423,20.1167447 271.401857,20.3170732 270.741623,20.3170732 Z M274.518776,20.1321546 L273.367205,20.1321546 L273.367205,12.6891816 L274.518776,12.6891816 L274.518776,13.8757425 C275.117593,13.1052484 275.977433,12.5196729 276.990816,12.5196729 L276.990816,13.7062338 C276.852627,13.690824 276.714438,13.6754141 276.545541,13.6754141 C275.82389,13.6754141 274.856571,14.2609896 274.518776,14.861975 L274.518776,20.1321546 Z M284.959687,20.1321546 L283.808116,20.1321546 L283.808116,19.0226431 C283.255362,19.7777273 282.349459,20.3170732 281.305368,20.3170732 C279.370729,20.3170732 278.004198,18.8377245 278.004198,16.418373 C278.004198,14.0298414 279.370729,12.504263 281.305368,12.504263 C282.303397,12.504263 283.209299,12.9973792 283.808116,13.814103 L283.808116,12.6891816 L284.959687,12.6891816 L284.959687,20.1321546 Z M281.5971,19.2846111 C282.503002,19.2846111 283.408905,18.7452652 283.808116,18.0980501 L283.808116,14.738696 C283.408905,14.0914809 282.503002,13.5367252 281.5971,13.5367252 C280.09238,13.5367252 279.201832,14.7695157 279.201832,16.418373 C279.201832,18.0672304 280.09238,19.2846111 281.5971,19.2846111 Z M290.533291,20.3170732 C288.322275,20.3170732 286.832909,18.6065763 286.832909,16.4029631 C286.832909,14.19935 288.322275,12.504263 290.533291,12.504263 C291.884468,12.504263 292.68289,13.0590188 293.250999,13.7986931 L292.483285,14.4921378 C291.991948,13.814103 291.362422,13.5367252 290.594708,13.5367252 C289.028572,13.5367252 288.030543,14.7541058 288.030543,16.4029631 C288.030543,18.0518205 289.028572,19.2846111 290.594708,19.2846111 C291.362422,19.2846111 291.991948,18.9764134 292.483285,18.3137886 L293.250999,19.0226431 C292.68289,19.7623174 291.884468,20.3170732 290.533291,20.3170732 Z M298.24114,20.3170732 C296.030124,20.3170732 294.448633,18.7298553 294.448633,16.4029631 C294.448633,14.2455797 295.984061,12.504263 298.102951,12.504263 C300.344676,12.504263 301.665145,14.2609896 301.665145,16.4954225 L301.665145,16.7882102 L295.676975,16.7882102 C295.769101,18.1905095 296.73642,19.3616605 298.333266,19.3616605 C299.193105,19.3616605 300.037591,19.0226431 300.636408,18.4062478 L301.189162,19.161332 C300.436802,19.9010064 299.438774,20.3170732 298.24114,20.3170732 Z M300.528928,15.9252568 C300.513573,14.8311552 299.776568,13.4596757 298.087597,13.4596757 C296.506106,13.4596757 295.723038,14.8003355 295.661621,15.9252568 L300.528928,15.9252568 Z M310.40173,20.1321546 L308.436383,20.1321546 L308.436383,19.1767419 C307.852919,19.9164162 307.054497,20.3170732 306.148594,20.3170732 C304.290727,20.3170732 302.862778,18.899364 302.862778,16.4029631 C302.862778,13.9836117 304.260018,12.504263 306.148594,12.504263 C307.023789,12.504263 307.837565,12.8741002 308.436383,13.6445943 L308.436383,12.6891816 L310.40173,12.6891816 L310.40173,20.1321546 Z M306.762766,18.5757565 C307.407645,18.5757565 308.113942,18.2213292 308.436383,17.728213 L308.436383,15.1085331 C308.113942,14.6154169 307.407645,14.2455797 306.762766,14.2455797 C305.641903,14.2455797 304.874189,15.123943 304.874189,16.4029631 C304.874189,17.6973933 305.641903,18.5757565 306.762766,18.5757565 Z M314.424551,20.3170732 C313.058021,20.3170732 312.33637,19.6082186 312.33637,18.2675589 L312.33637,9.85376339 L314.286363,9.85376339 L314.286363,17.7436229 C314.286363,18.2213292 314.532031,18.5757565 314.961951,18.5757565 C315.253683,18.5757565 315.53006,18.4678874 315.63754,18.3446083 L316.052105,19.8393669 C315.760374,20.1013348 315.222974,20.3170732 314.424551,20.3170732 Z M319.000127,20.3170732 C317.633596,20.3170732 316.911945,19.6082186 316.911945,18.2675589 L316.911945,9.85376339 L318.861938,9.85376339 L318.861938,17.7436229 C318.861938,18.2213292 319.107607,18.5757565 319.537527,18.5757565 C319.829258,18.5757565 320.105636,18.4678874 320.213115,18.3446083 L320.627681,19.8393669 C320.33595,20.1013348 319.79855,20.3170732 319.000127,20.3170732 Z M322.45484,11.8878678 C321.825315,11.8878678 321.303269,11.3639318 321.303269,10.7167168 C321.303269,10.0695017 321.825315,9.56097561 322.45484,9.56097561 C323.09972,9.56097561 323.621766,10.0695017 323.621766,10.7167168 C323.621766,11.3639318 323.09972,11.8878678 322.45484,11.8878678 Z M323.437514,20.1321546 L321.487521,20.1321546 L321.487521,12.6891816 L323.437514,12.6891816 L323.437514,20.1321546 Z M332.435123,20.1321546 L330.469775,20.1321546 L330.469775,19.1767419 C329.886312,19.9164162 329.087889,20.3170732 328.181987,20.3170732 C326.324119,20.3170732 324.896171,18.899364 324.896171,16.4029631 C324.896171,13.9836117 326.29341,12.504263 328.181987,12.504263 C329.057181,12.504263 329.870958,12.8741002 330.469775,13.6445943 L330.469775,12.6891816 L332.435123,12.6891816 L332.435123,20.1321546 Z M328.796158,18.5757565 C329.441038,18.5757565 330.147335,18.2213292 330.469775,17.728213 L330.469775,15.1085331 C330.147335,14.6154169 329.441038,14.2455797 328.796158,14.2455797 C327.675296,14.2455797 326.907582,15.123943 326.907582,16.4029631 C326.907582,17.6973933 327.675296,18.5757565 328.796158,18.5757565 Z M341.340606,20.1321546 L339.375258,20.1321546 L339.375258,15.632469 C339.375258,14.600007 338.837858,14.2455797 338.008727,14.2455797 C337.241012,14.2455797 336.65755,14.6770564 336.319755,15.1085331 L336.319755,20.1321546 L334.369762,20.1321546 L334.369762,12.6891816 L336.319755,12.6891816 L336.319755,13.6445943 C336.795739,13.0898386 337.716995,12.504263 338.91463,12.504263 C340.557538,12.504263 341.340606,13.428856 341.340606,14.8773849 L341.340606,20.1321546 Z M346.714604,20.3170732 C344.44217,20.3170732 342.783908,18.6990355 342.783908,16.4029631 C342.783908,14.1223007 344.44217,12.504263 346.714604,12.504263 C348.234678,12.504263 349.155934,13.166888 349.647271,13.8449228 L348.372866,15.0468936 C348.019718,14.5229576 347.482318,14.2455797 346.806729,14.2455797 C345.62445,14.2455797 344.795319,15.1085331 344.795319,16.4029631 C344.795319,17.6973933 345.62445,18.5757565 346.806729,18.5757565 C347.482318,18.5757565 348.019718,18.2675589 348.372866,17.7590328 L349.647271,18.9610036 C349.155934,19.6390383 348.234678,20.3170732 346.714604,20.3170732 Z M354.407098,20.3170732 C352.150019,20.3170732 350.445694,18.7914949 350.445694,16.4029631 C350.445694,14.2455797 352.042539,12.504263 354.284264,12.504263 C356.510635,12.504263 358,14.1685303 358,16.5878818 L358,17.0501782 L352.487814,17.0501782 C352.626001,17.9593612 353.363007,18.7144454 354.622058,18.7144454 C355.251584,18.7144454 356.111423,18.4524775 356.587406,17.990181 L357.4626,19.2846111 C356.725595,19.9626459 355.558669,20.3170732 354.407098,20.3170732 Z M356.126778,15.6941086 C356.065361,14.985254 355.574024,14.1068908 354.284264,14.1068908 C353.071276,14.1068908 352.549231,14.9544343 352.472459,15.6941086 L356.126778,15.6941086 Z" id="trace-alliance"></path>
                </g>
            </g>
        </g>
    </g>
</svg>